<?xml version="1.0" encoding="utf-8"?>
<!-- Generator: Adobe Illustrator 17.0.0, SVG Export Plug-In . SVG Version: 6.00 Build 0)  -->
<!DOCTYPE svg PUBLIC "-//W3C//DTD SVG 1.1//EN" "http://www.w3.org/Graphics/SVG/1.1/DTD/svg11.dtd">
<svg version="1.1" xmlns="http://www.w3.org/2000/svg" xmlns:xlink="http://www.w3.org/1999/xlink" x="0px" y="0px"
	 width="750.105px" height="300.042px" viewBox="0 0 750.105 300.042" enable-background="new 0 0 750.105 300.042"
	 xml:space="preserve">
<g id="Layer_3">
	<radialGradient id="SVGID_1_" cx="375.0523" cy="150.0209" r="285.6313" gradientUnits="userSpaceOnUse">
		<stop  offset="0" style="stop-color:#2E58A6"/>
		<stop  offset="0.1872" style="stop-color:#314FA2"/>
		<stop  offset="0.4966" style="stop-color:#393696"/>
		<stop  offset="0.8878" style="stop-color:#460D83"/>
		<stop  offset="1" style="stop-color:#4A007D"/>
	</radialGradient>
	<rect fill="url(#SVGID_1_)" stroke="#000000" stroke-miterlimit="10" width="750.105" height="300.042"/>
</g>
<g id="Layer_2">
	<g>
		<g>
			<polygon fill="#E6E6E4" points="294.138,127.363 287.865,118.621 284.37,105.949 285.996,96.324 292.237,93.356 299.987,97.015 
				307.083,116.616 297.543,128.566 			"/>
			<polygon fill="#FFFFFF" points="313.023,103.061 336.041,89.272 358.9,100.985 358.9,125.519 342.297,140.116 320.081,134.822 
							"/>
			<g>
				<g>
					<path fill="#101313" d="M368.361,227.416c-0.937,0-1.874,0-3.227,0c0,0.804-0.146,1.678,0.022,2.486
						c2.064,9.881,2.989,19.897,3.348,29.957c0.165,4.611-0.193,9.243-0.357,13.864c-0.245,6.915-1.219,13.693-3.064,20.401
						c-0.605,2.198-1.446,3.019-3.46,3.499c-6.851,1.631-13.736,2.243-20.715,1.084c-2.212-0.367-4.507-2.683-4.661-4.879
						c-0.07-0.993,0.476-2.029,0.756-3.098c-1.979-0.107-4.23-0.224-6.481-0.351c-6.146-0.346-7.841-6.582-5.999-11.126
						c2.305-5.686,4.701-11.344,6.721-17.132c1.228-3.521,2.292-7.224,2.601-10.914c0.66-7.881,1.165-15.814,0.013-23.706
						c-0.189-1.296-0.857-2.582-1.537-3.735c-3.802-6.452-7.814-12.785-11.437-19.334c-1.055-1.908-1.328-4.371-1.511-6.616
						c-0.556-6.791,0.357-13.469,2.193-20.009c1.381-4.92,2.858-9.815,4.382-14.694c0.694-2.223,1.608-4.376,2.409-6.566
						c0.103-0.283,0.125-0.596,0.216-1.059c-1.943,0.108-3.779,0.355-5.6,0.276c-2.482-0.107-4.954-0.455-7.429-0.714
						c-2.223-0.233-4.469-0.817-6.662-0.66c-4.483,0.322-9.098-0.597-13.448,1.258c-0.277,0.118-0.904-0.182-1.148-0.473
						c-0.434-0.516-0.699-1.175-1.034-1.773c0.027-0.342,0.054-0.683,0.08-1.025c0.201,0.004,0.403,0.007,0.605,0.011
						c0.297,0.222,0.595,0.444,0.892,0.666c0.636,0.201,1.294,0.628,1.903,0.567c3.327-0.334,6.646-1.142,9.961-1.107
						c3.756,0.04,7.532,0.641,11.25,1.286c4.276,0.742,8.527,0.508,12.69-0.288c3.213-0.615,6.277-1.992,9.425-2.972
						c0.457-0.142,1.014,0.04,1.524,0.072c-0.39,0.475-0.69,1.212-1.185,1.382c-2.959,1.018-5.972,1.878-8.941,2.87
						c-0.404,0.135-0.809,0.661-0.963,1.095c-2.015,5.694-4.215,11.338-5.901,17.13c-1.712,5.883-3.333,11.833-3.543,18.037
						c-0.177,5.237,0.044,10.444,2.762,15.093c3.14,5.371,6.511,10.608,9.803,15.889c1.569,2.517,3.715,4.159,6.802,4.343
						c1.077,0.064,2.147,0.254,3.449,0.415c-0.291-1.105-0.615-1.862-0.648-2.633c-0.02-0.47,0.408-0.958,0.635-1.438
						c0.357,0.316,0.906,0.568,1.035,0.959c0.432,1.305,0.776,2.648,1.039,3.998c0.416,2.135,0.777,4.283,1.093,6.436
						c0.501,3.414,1.185,6.824,1.351,10.257c0.184,3.815-0.011,7.661-0.253,11.48c-0.295,4.67-0.719,9.336-1.269,13.983
						c-0.267,2.259-0.93,4.473-1.446,6.7c-1.219,5.256-3.335,10.146-6.269,14.656c-1.615,2.482-0.532,5.419,2.373,5.805
						c6.182,0.821,12.318,0.041,18.449-0.67c1.708-0.198,2.829-1.127,3.183-2.871c1.024-5.05,2.478-10.059,2.971-15.16
						c0.654-6.763,0.847-13.605,0.698-20.402c-0.134-6.101-0.906-12.196-1.579-18.273c-0.327-2.954-1.296-5.842-1.552-8.796
						c-0.218-2.509,0.123-5.075,0.334-7.607c0.035-0.426,0.665-0.802,1.02-1.202c0.213,0.525,0.517,1.034,0.612,1.58
						c0.076,0.436-0.1,0.917-0.177,1.472c0.546,0.037,0.964,0.086,1.382,0.09c2.544,0.024,5.088,0.039,7.632,0.056
						c0.221,0.252,0.441,0.504,1.018,1.163c-2.045,0.142-3.687,0.215-5.318,0.392C369.558,226.91,368.965,227.218,368.361,227.416z
						 M336.49,227.621c0,3.732-0.02,7.327,0.004,10.921c0.041,6.136-0.278,12.254-1.612,18.249
						c-1.539,6.916-3.639,13.658-7.086,19.916c-1.102,2.001-2.082,4.063-2.139,6.446c-0.06,2.533,0.952,4.573,3.43,5.021
						c2.944,0.533,6.012,0.395,9.027,0.502c0.22,0.008,0.558-0.303,0.664-0.544c1.629-3.68,3.377-7.319,4.778-11.086
						c0.824-2.216,1.267-4.619,1.564-6.978c0.624-4.964,1.025-9.957,1.543-14.935c0.886-8.528,0.085-16.923-2.022-25.205
						c-0.11-0.433-0.672-0.975-1.107-1.066C341.202,228.379,338.843,228.023,336.49,227.621z"/>
					<path fill="#121112" d="M469.839,229.995c-0.173-0.081-0.345-0.161-0.518-0.242c-0.163-0.023-0.326-0.047-0.489-0.07
						c-3.765-1.679-7.544-3.327-11.286-5.056c-1.218-0.563-2.515-1.15-3.473-2.048c-4.516-4.232-6.816-9.726-7.587-15.668
						c-0.731-5.638-0.694-11.38-0.91-17.079c-0.13-3.426-0.201-6.841-1.526-10.245c-2.093,1.643-4.101,3.219-6.109,4.795
						c-0.204-0.384-0.409-0.768-0.613-1.152c1.982-1.636,3.963-3.272,5.945-4.908c0.216-0.279,0.433-0.559,0.649-0.838
						c0.995-0.991,1.99-1.983,2.986-2.974c0.117-0.109,0.235-0.218,0.352-0.327l-0.01,0.006c0.223-0.282,0.446-0.564,0.669-0.846
						c0.572-0.83,1.144-1.66,1.801-2.612c-0.465,0-0.713,0-0.96,0c-0.175,0.195-0.351,0.39-0.526,0.585
						c-0.412,0.327-0.824,0.654-1.237,0.982c-0.126,0.199-0.252,0.398-0.378,0.597c-1.214,0.883-2.428,1.765-3.642,2.648
						c-0.172,0.195-0.344,0.39-0.516,0.585c-1.037,0.718-2.074,1.436-3.111,2.153c-0.041-0.417-0.081-0.834-0.122-1.25
						c0.503-0.435,1.007-0.87,1.786-1.544c-1.748,0.395-3.119,0.704-4.489,1.014c-0.374,0.179-0.749,0.358-1.123,0.538
						c-2.433,0.478-4.853,1.036-7.302,1.405c-1.638,0.247-3.316,0.224-4.976,0.322c-0.065-0.023-0.124-0.013-0.178,0.029
						c-0.338,0.076-0.677,0.152-1.015,0.228c-0.107,0.113-0.213,0.225-0.32,0.338c-2.14,1.043-4.28,2.086-6.421,3.13
						c0.001-0.298,0.002-0.596,0.003-0.895c0.107-0.135,0.214-0.271,0.321-0.406c0.095-0.084,0.189-0.168,0.284-0.252
						c0.334-0.18,0.669-0.361,1.003-0.541c0.635-0.353,1.27-0.706,1.906-1.059c0.109-0.076,0.218-0.152,0.327-0.228
						c0.335-0.134,0.67-0.268,1.005-0.402c0.631-0.429,1.262-0.857,1.893-1.286l0.006-0.005c0.214-0.144,0.428-0.289,0.642-0.433
						c0.117-0.068,0.234-0.136,0.352-0.204c0.087-0.058,0.174-0.117,0.261-0.175c0.139,0.034,0.278,0.067,0.417,0.101
						c0.222,0.084,0.443,0.169,0.665,0.253c-0.056-0.19-0.113-0.38-0.169-0.57l0.003,0.009c0.345-0.204,0.69-0.408,1.035-0.612
						c0.731-0.455,1.462-0.91,2.193-1.365c0.262,0.264,0.525,0.527,0.787,0.791c-0.445,0.312-0.89,0.624-1.334,0.936
						c-0.127,0.091-0.254,0.183-0.38,0.274l-0.012,0.016c-0.448,0.12-0.897,0.24-1.345,0.359c0.02,0.13,0.041,0.259,0.061,0.388
						c0.327-0.021,0.654-0.042,0.981-0.063c4.886-0.984,9.887-1.511,14.759-3.618c-0.935-1.398-1.818-2.586-2.551-3.861
						c-0.505-0.878-0.992-0.736-1.619-0.254c-0.106,0.083-0.211,0.165-0.317,0.248c-0.735,0.488-1.469,0.976-2.204,1.464
						c-0.867-0.431-1.136-0.249-1.322,0.892c-0.638,0.417-1.277,0.834-1.915,1.252c-0.67,0.178-1.339,0.356-2.129,0.566
						c0.138-0.421,0.246-0.749,0.364-1.11c-0.449-0.047-0.751-0.079-1.13-0.119c0.507-0.614,0.897-1.086,1.288-1.558
						c0.22-0.112,0.44-0.224,0.66-0.336c0.529-0.305,1.059-0.61,1.588-0.915c1.237-0.705,2.475-1.41,3.643-2.076
						c-5.98-3.389-12.06-1.696-18.203-0.691c1.529,2.536,2.978,4.96,4.466,7.361c0.09,0.146,0.489,0.1,0.744,0.144
						c0.808-0.037,1.853,0.364,1.925-1.038c0.322-0.104,0.643-0.208,0.965-0.311c0.286,0.193,0.572,0.386,0.857,0.581
						c-1.024,0.689-2.048,1.376-3.071,2.063c-2.029,0.858-4.057,1.716-6.086,2.574c-0.216,0.105-0.432,0.209-0.649,0.314
						c-1.826,0.746-3.653,1.492-5.479,2.238c-0.31-0.286-0.62-0.572-0.93-0.858c0.849-0.357,1.697-0.713,2.546-1.07
						c0.017,0.037,0.029,0.079,0.054,0.109c0.015,0.018,0.052,0.018,0.079,0.026c-0.045-0.044-0.09-0.088-0.136-0.133
						c-0.548-0.165-1.097-0.329-1.645-0.494c-0.125-0.033-0.25-0.065-0.376-0.098c-1.841-0.383-3.757-0.563-5.504-1.204
						c-1.936-0.71-2.599-2.597-1.993-4.582c0.138-0.453,0.331-0.89,0.491-1.337c0.325-0.912-0.252-0.961-0.903-0.936
						c-0.214,0.081-0.428,0.163-0.642,0.244c-0.858,0.226-1.716,0.451-2.574,0.677c-0.105,0.015-0.21,0.03-0.314,0.046
						c-0.426,0.11-0.851,0.22-1.277,0.329c-0.129-0.351-0.258-0.702-0.387-1.053l-0.005,0.017c0.238-0.095,0.475-0.19,0.713-0.285
						c3.744-0.945,7.489-1.89,11.233-2.835c0.105-0.058,0.21-0.116,0.315-0.175c1.1-0.19,2.2-0.38,3.3-0.569
						c0.183-0.089,0.367-0.177,0.55-0.266c2.568-0.507,5.136-1.013,7.703-1.52c0.103-0.01,0.206-0.021,0.309-0.031
						c0.342-0.143,0.684-0.287,1.247-0.523c-0.713-0.131-1.152-0.212-1.59-0.292c-0.137-0.047-0.275-0.093-0.412-0.14
						c-1.773-0.106-3.545-0.211-5.318-0.317c-0.538-0.025-1.077-0.049-1.615-0.074c-1.857,0.068-3.717,0.078-5.569,0.214
						c-4.671,0.342-9.338,0.741-14.006,1.117c-0.221,0.028-0.441,0.056-0.662,0.084c-0.318,0.053-0.635,0.106-0.953,0.16
						c-0.103,0.007-0.205,0.015-0.308,0.022c-1.104,0.25-2.207,0.5-3.311,0.75c-0.183,0.092-0.367,0.183-0.55,0.275
						c-1.916,0.548-3.833,1.095-5.749,1.643c0.528-0.603,1.056-1.205,1.585-1.808c0.468-0.08,0.936-0.16,1.403-0.24
						c0.388-0.176,0.775-0.352,1.163-0.528c2.892-0.793,5.715-1.936,8.805-1.708c0.157-0.043,0.314-0.085,0.471-0.128
						c0.653-0.043,1.306-0.087,1.959-0.13c0.212-0.024,0.424-0.048,0.636-0.073c2.573-0.178,5.147-0.355,7.72-0.533
						c0.635-0.058,1.27-0.116,1.905-0.173c0.467,0.02,0.933,0.041,1.4,0.061c0.084-0.081,0.169-0.162,0.253-0.243
						c-1.726-0.912-3.451-1.824-5.177-2.737c-0.096-0.084-0.192-0.167-0.288-0.251c-0.654-0.108-1.308-0.215-1.963-0.323
						c-0.641-0.078-1.282-0.157-1.923-0.235c-0.645-0.007-1.289-0.013-1.934-0.02c-0.639,0.025-1.277,0.05-1.916,0.075
						c-1.556,0.318-3.113,0.636-4.669,0.954c-0.262,0.157-0.524,0.315-0.786,0.472c-0.245-0.019-0.489-0.037-0.734-0.056
						c-1.515,0.281-3.035,0.54-4.54,0.87c-0.21,0.046-0.343,0.441-0.511,0.674c-0.213,0.077-0.425,0.153-0.638,0.23
						c-0.638,0.234-1.277,0.469-1.915,0.703c-0.582,0.215-1.164,0.43-1.746,0.644c-0.483,0.172-0.966,0.343-1.449,0.515
						c-4.491,1.699-9.055,2.955-13.937,2.388c-0.288-0.033-0.601,0.148-0.902,0.23c-0.406,0.008-0.812,0.016-1.217,0.024
						c-0.096-0.538-0.192-1.077-0.288-1.615c0.011-0.427,0.022-0.855,0.033-1.282c0.001-0.218,0.002-0.435,0.003-0.653
						c-0.012-0.204-0.024-0.408-0.037-0.612c0.009-0.214,0.017-0.428,0.026-0.642c0.127-0.055,0.254-0.11,0.381-0.165
						c-0.124-0.058-0.248-0.116-0.372-0.175c0.029-0.879,0.058-1.758,0.087-2.637c0.16-0.077,0.32-0.153,0.48-0.23
						c0.214-0.11,0.428-0.22,0.642-0.329l0.144,0.003l0.144-0.008c-0.007,0.323-0.015,0.647-0.022,0.97
						c-0.019,1.493-0.039,2.986-0.058,4.479c0.035,0.14,0.069,0.281,0.103,0.421c1.4,0.086,2.799,0.171,4.199,0.257
						c4.5,0.634,8.433-1.324,12.341-2.973c5.999-2.531,12.213-3.969,18.661-4.249c3.641-0.158,7.123,0.827,10.075,3.174
						c0.525,0.377,1.049,0.755,1.574,1.132c0.515,0.313,1.025,0.888,1.545,0.897c4.162,0.068,8.307,0.15,12.294,1.586
						c0.48,0.173,1.051,0.097,1.58,0.133c1.267,0.086,2.585-0.022,3.791,0.295c2.863,0.752,5.988,1.166,8.1,3.46
						c1.436,1.559,2.408,3.545,3.836,5.719c1.166-0.738,2.577-1.421,3.73-2.407c2.117-1.809,4.059-3.821,6.132-5.684
						c0.32-0.288,0.945-0.237,1.428-0.342c0.022,0.494,0.242,1.104,0.031,1.462c-0.993,1.69-2.002,3.389-3.194,4.939
						c-1.838,2.389-3.831,4.66-5.781,7.008c2.205,3.704,2.646,7.824,2.432,12.008c-0.353,6.889-0.345,13.731,1.58,20.432
						c1.591,5.539,4.594,9.984,9.839,12.727c4.578,2.394,9.265,4.503,14.27,5.843c0.149,0.069,0.298,0.139,0.447,0.208
						c0.382,0.031,0.763,0.061,1.145,0.092c0.217,1.61,1.009,0.482,1.595,0.335c0.114,0.005,0.227,0.011,0.341,0.016
						c0.113,0.095,0.225,0.19,0.338,0.286c0.206,0.313,0.411,0.626,0.617,0.939c0.003,0.183,0.006,0.367,0.01,0.55
						c-0.225-0.013-0.449-0.027-0.674-0.04c-2.103-0.504-4.206-1.008-6.309-1.513c-0.142-0.032-0.283-0.065-0.425-0.097
						C470.181,230.147,470.01,230.071,469.839,229.995z M411.639,168.055c-0.207,0.061-0.414,0.122-0.621,0.183
						c-0.891,0.195-1.781,0.389-2.672,0.584c-0.177,0.073-0.353,0.145-0.53,0.218c-2.193,0.094-2.536,1.882-3.143,3.43
						c-0.854,2.18-0.438,3.279,1.808,3.837c3.773,0.938,7.609,1.182,11.463,0.419c0.365-0.177,0.73-0.354,1.094-0.531
						c0.944-0.437,1.05-1.09,0.518-1.932c-0.765-1.21-1.561-2.405-2.264-3.651C416.022,168.358,414.457,166.846,411.639,168.055z"/>
					<path fill="#0C0E0E" d="M289.433,85.993c0.231-0.326,0.461-0.652,0.692-0.978c0.431-0.178,0.862-0.355,1.294-0.533
						c-0.176-0.203-0.353-0.405-0.529-0.608c-0.43,0.032-0.859,0.063-1.375,0.101c0.097-0.47,0.167-0.815,0.238-1.159
						c0.187-0.031,0.374-0.062,0.56-0.092c0.346-0.094,0.692-0.187,1.039-0.281c0.214-0.105,0.429-0.209,0.643-0.314
						c0.313-0.126,0.626-0.252,0.94-0.377c0,0-0.019,0.017-0.018,0.017c0.661,0.25,1.321,0.5,1.981,0.75
						c-0.887,0.825-1.774,1.649-2.66,2.474c-0.171,0.261-0.342,0.523-0.514,0.784c-0.283,0.482-0.566,0.965-0.85,1.447
						c-1.541,1.306-1.541,1.306,0.158,2.606c-0.985,0.377-2.599-0.13-2.495,1.776c-0.197,0.538-0.393,1.077-0.671,1.838
						c0.592-0.27,0.932-0.413,1.261-0.578c2.59-1.302,5.132-0.904,7.092,1.194c4.284,4.586,6.614,10.094,7.258,16.272
						c0.359,3.449,0.333,6.939,0.472,10.203c0.087-0.028,0.519-0.167,1.155-0.371c-0.292,2.455-1.732,3.855-3.244,5.13
						c-3.267,2.753-7.388,3.652-11.309,4.929c-2.317,0.755-2.449,0.688-2.016,3.102c0.595,3.315,1.23,6.624,1.956,9.913
						c0.195,0.884,0.778,1.682,1.182,2.52c0.215-0.031,0.43-0.063,0.645-0.094c0.213-0.025,0.425-0.05,0.638-0.075
						c-0.321,0.555-0.642,1.11-0.963,1.665l-0.002,0.001c-0.115,0.108-0.23,0.217-0.345,0.325c-0.493-0.117-0.987-0.233-1.48-0.35
						l-0.089-0.09l0.046-0.118c-0.047-0.116-0.094-0.233-0.141-0.349c-0.074-0.136-0.148-0.273-0.222-0.409
						c-0.086-0.316-0.172-0.632-0.258-0.947l-0.071-0.041l0.04-0.071c-0.1-0.277-0.199-0.554-0.299-0.831
						c-0.926-4.027-2.451-7.928-2.398-12.158c0.027-2.176,0.228-2.536,2.286-3.11c0.959-0.268,1.898-0.605,2.722-0.871
						c-1.595-3.287-3.424-6.44-4.683-9.805c-1.551-4.148-2.555-8.496-3.926-12.715c-1.663-5.117,0.506-9.373,2.823-13.63
						c1.358-0.185,0.582-1.302,0.856-1.96c0.11-0.141,0.22-0.281,0.33-0.421c0,0.001,0.005,0.032,0.005,0.032
						c0.098-0.22,0.195-0.439,0.293-0.658c0,0.001-0.037,0.067-0.037,0.067c0.089-0.093,0.177-0.186,0.266-0.279
						c0.042-0.094,0.085-0.188,0.127-0.282c0.077-0.132,0.154-0.264,0.232-0.396c0.059-0.023,0.092-0.067,0.099-0.131
						c0.061-0.166,0.122-0.331,0.183-0.497c0.077-0.04,0.123-0.102,0.138-0.189l0.036-0.09l0.097,0.001
						c0.1-0.051,0.164-0.131,0.191-0.239c0,0,0.052-0.086,0.052-0.086c0.096-0.174,0.192-0.348,0.288-0.521l-0.028-0.078
						l0.073-0.039C289.275,86.21,289.354,86.101,289.433,85.993z M295.058,95.206c-0.892-0.22-1.777-0.479-2.679-0.651
						c-1.284-0.245-4.706,0.853-5.191,2.341c-0.5,1.535-0.988,3.096-1.232,4.684c-0.206,1.343,0.107,2.766-0.098,4.11
						c-0.384,2.513,0.128,4.885,0.57,7.329c0.499,2.758,2.587,4.572,3.578,7.2c0.042-0.525,0.121-0.843,0.076-1.141
						c-0.047-0.307-0.241-0.589-0.327-0.894c-1.677-5.949-2.532-11.995-0.52-17.97C290.307,97.029,291.387,95.401,295.058,95.206z
						 M297.833,126.15c-1.638-2.674-3.453-5.283-4.877-8.092c-0.872-1.721-1.228-3.727-1.667-5.639
						c-0.84-3.659-0.762-7.313,0.976-10.702c1.371-2.673,2.845-3.481,5.537-2.244c0.037,0.017,0.14-0.109,0.212-0.168
						c-2.72-3.123-5.35-3.436-6.982,0.071c-0.422,0.906-0.815,1.851-1.04,2.82c-0.952,4.102-0.65,8.235,0.158,12.293
						c0.734,3.687,1.93,7.259,4.299,10.302C295.395,126.006,296.466,126.832,297.833,126.15z"/>
					<path fill="#161B1B" d="M368.361,227.416c0.604-0.198,1.197-0.506,1.815-0.573c1.631-0.177,3.273-0.249,5.318-0.392
						c-0.576-0.659-0.797-0.911-1.016-1.162c0.095,0.001,0.16,0.045,0.195,0.132c0.135-0.083,0.27-0.167,0.404-0.25
						c4.772-1.233,9.56-2.408,14.308-3.725c2.034-0.564,3.976-1.454,5.984-2.123c0.375-0.125,0.865,0.094,1.302,0.154
						c-0.154,0.398-0.216,0.883-0.486,1.172c-0.309,0.329-0.785,0.533-1.222,0.703c-1.027,0.399-2.075,0.745-3.201,1.143
						c0.746,1.751,1.445,3.399,2.15,5.044c1.544,3.603,3.269,7.141,4.601,10.821c2.584,7.139,2.748,14.536,1.873,22.003
						c-0.862,7.354-3.259,14.266-5.922,21.117c-1.266,3.256-2.475,6.548-3.465,9.895c-1.439,4.868,1.537,7.167,5.825,6.945
						c2.111-0.109,4.235-0.029,6.337-0.214c2.956-0.26,5.902-0.658,8.841-1.07c0.485-0.068,1.081-0.398,1.346-0.794
						c1.209-1.8,2.85-3.532,3.361-5.537c1.292-5.068,2.268-10.241,2.99-15.425c1.189-8.538,1.338-17.152,1.263-25.767
						c-0.028-3.182,0.046-6.366,0.073-9.548c0.717,0.23,1.231,0.186,1.182-0.78c-0.035-0.695-0.008-1.393-0.009-2.089
						c0.152,2.464,0.465,4.931,0.424,7.392c-0.123,7.393-0.22,14.793-0.645,22.173c-0.331,5.749-1.023,11.485-1.78,17.197
						c-0.364,2.744-0.908,5.564-1.982,8.09c-1.488,3.499-3.594,6.429-7.995,7.172c-3.592,0.607-7.167,0.862-10.769,1.001
						c-1.705,0.066-3.455-0.017-5.126-0.337c-3.907-0.746-5.857-3.978-5.021-8.025c0.106-0.514,0.213-1.027,0.355-1.713
						c-1.162,0.143-2.184,0.373-3.206,0.374c-2.271,0.002-4.551-0.01-6.812-0.199c-3.409-0.285-4.94-4.141-4.56-6.964
						c0.261-1.935,1.285-3.775,2.02-5.637c2.214-5.608,6-10.515,7.296-16.542c0.901-4.191,1.209-8.379,0.585-12.635
						c-0.175-1.193-0.184-2.417-0.19-3.628c-0.02-3.918-1.665-7.406-2.945-10.973c-0.785-2.19-1.937-4.246-2.885-6.38
						c-0.39-0.879-0.962-1.088-1.9-0.97C374.176,226.853,371.266,227.115,368.361,227.416z M380.03,225.942
						c0.292,0.711,0.405,1.008,0.534,1.297c1.385,3.097,2.912,6.138,4.124,9.301c1.567,4.089,2.294,8.347,2.216,12.776
						c-0.07,3.947,0.123,7.915-0.83,11.77c-1.268,5.132-3.467,9.892-5.991,14.539c-1.405,2.587-2.613,5.37-3.341,8.21
						c-0.801,3.128,1.544,5.261,4.753,4.829c0.415-0.056,0.841-0.027,1.262-0.041c2.161-0.074,4.324-0.108,6.479-0.264
						c0.396-0.029,0.95-0.475,1.103-0.859c1.971-4.935,4.108-9.82,5.753-14.865c2.105-6.453,3.493-13.097,3.135-19.957
						c-0.158-3.022-0.313-6.081-0.913-9.034c-0.565-2.785-1.586-5.502-2.634-8.159c-1.537-3.901-3.263-7.728-4.959-11.564
						c-0.11-0.249-0.695-0.497-0.983-0.428C386.56,224.257,383.395,225.083,380.03,225.942z"/>
					<path fill="#19171A" d="M411.653,161.371c-0.525-0.377-1.049-0.755-1.574-1.132c0.405-0.176,0.965-0.238,1.193-0.545
						c2.686-3.629,5.449-7.151,9.042-9.991c4.494-3.552,9.541-5.53,15.209-5.952c3.949-0.294,7.898-1.058,11.87-0.163
						c2.127,0.479,4.511,0.21,6.12,2.155c4.522,0.666,7.038,4.314,9.936,7.131c2.945,2.863,5.457,6.287,7.632,9.791
						c1.82,2.932,2.864,6.344,4.284,9.528c1.458,3.268,0.915,6.685,0.723,10.051c-0.315,5.555-0.727,11.107-1.216,16.65
						c-0.418,4.743-1.344,9.466-1.428,14.208c-0.116,6.569,2.952,11.906,7.655,16.369c0.442,0.42,0.636,1.101,0.944,1.662
						c-0.636,0.31-1.246,0.781-1.914,0.887c-0.763,0.121-1.578-0.084-2.371-0.147c-0.003-0.183-0.006-0.367-0.01-0.55
						c1.006-0.003,2.014,0.021,3.017-0.029c0.261-0.013,0.544-0.222,0.746-0.415c0.064-0.061-0.058-0.485-0.178-0.532
						c-0.254-0.101-0.563-0.082-0.849-0.077c-0.378,0.006-0.756,0.046-1.134,0.071c-0.331-0.505-0.6-1.065-1.002-1.505
						c-3.935-4.321-6.294-9.301-6.398-15.222c-0.094-5.397,0.874-10.682,1.533-16.013c0.728-5.89,0.823-11.863,1.057-17.806
						c0.085-2.168,0.212-4.492-0.434-6.503c-1.871-5.822-5.068-11.035-8.848-15.783c-2.335-2.933-5.122-5.606-8.084-7.91
						c-2.382-1.852-4.876-3.801-8.091-4.314c-6.251-0.997-12.458-0.591-18.528,0.93c-2.44,0.612-4.606,2.281-6.928,3.406
						c-3.856,1.867-6.604,4.92-9.097,8.281C413.64,159.107,412.617,160.217,411.653,161.371z"/>
					<path fill="#121112" d="M370.454,137.004c-0.06-0.217-0.119-0.435-0.179-0.652c-0.083-0.222-0.166-0.443-0.249-0.665
						l-0.043-0.095c-0.001-0.1-0.048-0.17-0.139-0.211c-0.042-0.111-0.084-0.221-0.126-0.332c-0.124-0.432-0.249-0.864-0.373-1.296
						c-0.124,0.01-0.249,0.021-0.373,0.031c-0.289,0.609-0.578,1.218-0.868,1.827c-0.115-0.031-0.23-0.062-0.346-0.094
						c0.095-0.681,0.189-1.361,0.284-2.042c0.135-0.047,0.271-0.093,0.407-0.14c-0.029-0.039-0.078-0.113-0.084-0.11
						c-0.12,0.067-0.234,0.143-0.35,0.218c-0.089-0.007-0.176,0.002-0.262,0.026c0.051-0.317,0.102-0.634,0.152-0.95
						c0.046-0.219,0.092-0.437,0.138-0.656c-1.034-1.83-1.979-3.719-3.138-5.466c-0.626-0.944-0.806-1.741-0.467-2.808
						c0.507-1.597,1.187-3.23,1.234-4.864c0.117-4.054-0.096-8.118-0.138-12.178c-0.005-0.478,0.076-1.131,0.383-1.401
						c0.648-0.571,1.483-0.925,2.22-1.4c0.807-0.52,1.524-0.443,2.106,0.307c0.831,1.072,1.617,2.178,2.5,3.375
						c0.969-2.488,1.909-4.903,2.85-7.319c0.074-0.209,0.149-0.417,0.223-0.626c0.434-1.403,0.869-2.807,1.303-4.21
						c0.056-0.137,0.112-0.274,0.168-0.411c0.096-0.291,0.191-0.582,0.287-0.873c0.28-0.167,0.56-0.335,0.983-0.588
						c0,0.702,0,1.214,0,1.725l0.055,0.069l-0.058,0.067c-0.111,0.488-0.222,0.976-0.333,1.464
						c-0.078,0.214-0.156,0.429-0.235,0.643c-0.001,0-0.018-0.062-0.018-0.062c-0.045,0.178-0.091,0.356-0.136,0.534
						c-0.908,0.704-0.464,1.062,0.34,1.328l0.084,0.034l-0.004,0.091c0.085,0.167,0.169,0.334,0.254,0.501l0.082,0.065l-0.025,0.101
						c0.091,0.257,0.182,0.514,0.272,0.771c2.078,4.806,2.711,9.937,3.295,15.063c0.372,3.265,0.56,6.552,0.769,9.833
						c0.09,1.412,0.086,2.838-0.008,4.249c-0.031,0.464-0.481,0.9-0.739,1.349c-0.442-0.389-1.042-0.696-1.299-1.183
						c-1.162-2.198-2.225-4.449-3.331-6.677c-0.084-0.17-0.231-0.309-0.609-0.8c0.155,2.401,0.352,4.386,0.397,6.375
						c0.068,3.027,0.303,6.087-0.041,9.074c-0.34,2.955-1.272,5.848-2.041,8.743c-0.12,0.452-0.76,0.765-1.16,1.142
						c-0.255-0.462-0.599-0.897-0.749-1.39c-0.931-3.061-1.818-6.136-2.72-9.207C370.551,137.202,370.503,137.103,370.454,137.004z
						 M374.317,143.464c0.286-0.466,0.626-0.783,0.676-1.14c0.276-1.993,0.643-3.992,0.681-5.994
						c0.102-5.373,0.151-10.751-0.913-16.069c-0.12-0.599,0.29-1.304,0.455-1.959c0.547,0.33,1.271,0.534,1.61,1.011
						c1.487,2.094,2.863,4.268,4.243,6.357c0.873-4.194-2.187-22.083-4.218-24.684c-1.088,2.485-2.163,5.02-3.326,7.514
						c-0.188,0.402-0.767,0.857-1.166,0.857c-0.365,0-0.816-0.526-1.077-0.921c-0.729-1.104-1.379-2.261-2.075-3.422
						c-1.301,0.989-2.417,1.504-2.116,3.208c0.928,5.252,0.446,10.453-0.873,15.606c-0.158,0.618-0.022,1.502,0.329,2.03
						C370.109,131.221,372.644,137.028,374.317,143.464z"/>
					<path fill="#121112" d="M305.482,52.422c0.221-0.038,0.442-0.077,0.662-0.115c0.209-0.085,0.418-0.169,0.627-0.254l0.096-0.039
						c0.162-0.046,0.324-0.092,0.485-0.139c0.157-0.057,0.314-0.114,0.471-0.17c0.673,0.072,1.346,0.144,2.089,0.223
						c0.018,0.337,0.038,0.69,0.057,1.043c-0.543,0.136-1.085,0.272-1.628,0.408c-0.04-0.084-0.081-0.168-0.121-0.253
						c-0.041,0.079-0.083,0.157-0.124,0.236l0.028-0.02c-0.562,0.295-1.124,0.591-1.686,0.886c-0.117-0.025-0.233-0.051-0.35-0.076
						c-0.207,0.117-0.414,0.234-0.622,0.35c-0.822,0.24-1.643,0.481-2.465,0.721c-0.136,0.064-0.272,0.128-0.408,0.192
						c-0.064,0.087-0.15,0.128-0.259,0.121c-0.127,0.059-0.255,0.117-0.382,0.176c-0.18,0.053-0.36,0.106-0.541,0.158
						c-0.142,0.069-0.284,0.137-0.426,0.206c-0.639,0.324-1.278,0.649-1.916,0.973c0.012,0.133,0.025,0.266,0.037,0.399
						c0.762,0,1.565-0.151,2.277,0.037c0.962,0.254,1.856,0.769,2.778,1.173c-0.794,0.594-1.503,1.424-2.395,1.745
						c-6.556,2.362-12.631,5.561-18.197,9.779c-3.239,2.455-6.082,5.292-8.735,8.33c-0.947,1.084-1.617,2.41-2.413,3.626
						l0.014-0.023c-0.141-0.002-0.281-0.004-0.422-0.006c-0.173,0.227-0.347,0.454-0.521,0.681c0.616-0.312,2.043,1.173,1.809-0.756
						l0.076,0.049l-0.083-0.036c0.629,0.146,1.259,0.291,2.188,0.506c-0.065-0.635-0.125-1.213-0.184-1.79
						c0.407-0.199,0.814-0.398,1.221-0.597c0.511,0.219,1.023,0.438,1.534,0.657c-2.2,1.493-4.399,2.987-6.599,4.48
						c-0.104-0.095-0.207-0.19-0.311-0.286c0.171-0.414,0.342-0.829,0.681-1.648c-0.941,0.259-1.739,0.479-2.537,0.698
						c3.427-6.925,8.86-12.007,15.004-16.47c4.443-3.228,9.342-5.591,14.298-7.868c0.114-0.052,0.18-0.211,0.164-0.783
						c-1.865,0.336-3.735,0.654-5.594,1.021c-0.515,0.102-1.016,0.531-1.495,0.49c-0.613-0.053-1.198-0.431-1.795-0.669
						c0.321-0.482,0.534-1.215,0.981-1.408c4.323-1.865,8.685-3.639,13.036-5.44C304.419,52.77,304.951,52.596,305.482,52.422z"/>
					<path fill="#0C0E0E" d="M422.209,237.095c0.001,0.696-0.026,1.394,0.009,2.089c0.049,0.966-0.465,1.01-1.182,0.78
						c-0.017-0.32-0.034-0.64-0.051-0.961c-0.003-0.317-0.005-0.635-0.008-0.952c-0.062-0.852-0.124-1.704-0.186-2.556
						c-0.024-0.339-0.049-0.678-0.073-1.016c-0.061-0.631-0.122-1.262-0.183-1.893c0.076-0.051,0.152-0.102,0.228-0.153
						c-0.084-0.036-0.168-0.072-0.252-0.108c-0.087-0.249-0.211-0.492-0.255-0.748c-0.251-1.48-0.989-1.416-1.972-0.647
						c-0.209,0.163-0.43,0.312-0.653,0.456c-1.049,0.672-1.919,0.614-2.687-0.496c-1.335-1.928-1.331-4.019-0.632-6.079
						c1.63-4.803,3.392-9.561,5.101-14.337c0.21-0.643,0.42-1.286,0.63-1.929c0.15-0.535,0.3-1.071,0.451-1.606
						c0.247-0.687,0.494-1.374,0.741-2.061c0.061-0.169,0.122-0.339,0.183-0.508c0.146-0.276,0.292-0.552,0.439-0.829
						c0.05-0.264,0.1-0.528,0.15-0.792c0.064-0.147,0.128-0.295,0.192-0.442c0.595-1.772,1.189-3.543,1.784-5.315
						c0.06-0.325,0.12-0.65,0.18-0.975c0.08-0.217,0.161-0.434,0.241-0.651c0.145-0.037,0.289-0.074,0.434-0.111
						c-0.158-0.056-0.315-0.111-0.473-0.167c-0.015-0.102-0.029-0.204-0.044-0.305c0.127-0.145,0.254-0.29,0.381-0.435
						c-0.182-0.081-0.364-0.162-0.546-0.243c-0.802,0.452-1.605,0.905-2.407,1.357c-0.15-0.339-0.3-0.679-0.45-1.018l0.022-0.01
						c0.193-0.13,0.387-0.26,0.58-0.389l-0.017,0.012c0.232-0.151,0.465-0.302,0.697-0.453c1.794-1.13,3.588-2.259,5.381-3.389
						c0.413,0.215,0.826,0.429,1.239,0.644c-2.706,1.189-3.224,3.619-3.88,6.192c-0.928,3.639-2.549,7.101-3.469,10.741
						c-1.508,5.968-3.638,11.708-5.768,17.458c-0.587,1.586-0.874,3.168,0.233,4.802c0.506-0.32,1.012-0.639,1.517-0.959
						c0.612-0.098,1.224-0.196,1.836-0.294c0.138-0.009,0.275-0.019,0.413-0.029c0.001,0-0.014,0.002-0.014,0.002
						c0.293,0.223,0.586,0.446,0.878,0.669c0.073,0.202,0.145,0.404,0.218,0.606l0.092,0.022l-0.015,0.094
						c0.089,0.167,0.178,0.335,0.267,0.503c0.031,0.22,0.061,0.44,0.092,0.661c0.074,0.207,0.147,0.415,0.221,0.622
						c0.024,0.247,0.048,0.495,0.073,0.742l0.002,0.137c0.007,0.136,0.013,0.273,0.02,0.409c0.081,0.747,0.162,1.494,0.243,2.241
						c-0.001,0.217-0.003,0.433-0.004,0.65c-0.036,0.035-0.109,0.084-0.102,0.101c0.033,0.083,0.088,0.157,0.135,0.234l0.022,0.087
						l0.006,0.118C422.213,236.809,422.211,236.952,422.209,237.095z"/>
					<path fill="#1D1C20" d="M309.969,52.971c-0.019-0.353-0.039-0.706-0.057-1.043c-0.742-0.079-1.415-0.151-2.089-0.223
						c4.504-1.705,9.194-1.964,13.952-1.95c5.594,0.016,11.004,0.996,16.166,3.049c2.937,1.168,5.665,2.858,8.508,4.27
						c4.568,2.27,8.281,5.674,12.06,8.995c1.097-0.039,1.305,0.615,1.271,1.544c-0.045,1.218-0.019,2.438-0.024,3.657l-0.011,0.005
						c-0.117-0.016-0.234-0.032-0.351-0.047c-0.278,0.093-0.556,0.186-0.834,0.279c-0.036-0.638-0.119-1.278-0.097-1.914
						c0.035-1.018-0.295-1.723-1.1-2.465c-3.603-3.327-7.444-6.256-11.706-8.741c-4.221-2.461-8.59-4.494-13.262-5.767
						C324.92,50.583,317.415,50.99,309.969,52.971z"/>
					<path fill="#141619" d="M278.054,80.825c-0.511-0.219-1.023-0.438-1.534-0.657c0.048-0.095,0.07-0.233,0.147-0.28
						c4.475-2.728,9.333-4.496,14.42-5.658c0.322-0.074,0.753,0.327,1.133,0.506c-0.244,0.35-0.424,0.779-0.743,1.036
						c-1.89,1.53-4.016,2.829-5.662,4.582c-1.421,1.513-2.307,3.527-3.43,5.319c-0.065,0.034-0.13,0.069-0.195,0.103
						c0.036,0.003,0.088,0.022,0.104,0.006c0.034-0.035,0.048-0.088,0.07-0.134c0.709-0.191,1.446-0.314,2.122-0.587
						c1.77-0.714,3.513-1.494,5.266-2.247c-0.071,0.345-0.142,0.689-0.238,1.159c0.516-0.038,0.946-0.07,1.375-0.101
						c0.176,0.203,0.353,0.405,0.529,0.608c-0.431,0.178-0.862,0.355-1.294,0.533c0.25-0.987-0.308-0.651-0.739-0.433
						c-2.644,1.337-5.283,2.684-7.922,4.031c-0.234,0.119-0.44,0.347-0.682,0.386c-0.586,0.095-1.185,0.108-1.779,0.154
						c0.089-0.579,0.008-1.265,0.294-1.721c2.102-3.342,4.278-6.639,6.576-10.173C283.233,78.464,280.643,79.644,278.054,80.825z"/>
					<path fill="#161B1B" d="M378.559,95.124c0-0.512,0-1.023,0-1.725c-0.423,0.253-0.703,0.421-0.983,0.588
						c0.325-1.113,0.697-2.214,0.967-3.34c0.855-3.576,2.15-7.101,1.48-10.88c-0.43-2.427-0.912-4.846-1.371-7.268
						c-0.413-1.677-0.826-3.354-1.253-5.087c0.361,0.083,0.801,0.185,1.241,0.287c0.925,3.278,2.06,6.513,2.728,9.842
						C382.606,83.703,380.888,89.484,378.559,95.124z"/>
					<path fill="#1B2222" d="M368.043,133.474c-0.095,0.681-0.189,1.361-0.284,2.042c0.115,0.031,0.231,0.062,0.346,0.094
						c0.289-0.609,0.578-1.218,0.868-1.827c0.124-0.01,0.249-0.021,0.373-0.031c0.124,0.432,0.249,0.864,0.373,1.296
						c-0.3,0.383-0.791,0.731-0.87,1.156c-1.338,7.218-2.625,14.446-3.927,21.671c-0.018,0.1-0.093,0.19-0.141,0.284l-0.144,0.008
						l-0.144-0.003c0.061-0.375,0.245-0.782,0.157-1.118c-0.163-0.618,0.721-1.766-0.803-1.758c-0.009-0.367-0.079-0.745-0.019-1.1
						c1.13-6.654,2.27-13.306,3.432-19.954c0.048-0.276,0.324-0.513,0.494-0.767c0.086-0.024,0.173-0.033,0.262-0.026
						L368.043,133.474z"/>
					<path fill="#161B1B" d="M360.088,54.2c-0.254-0.586-0.799-1.636-0.717-1.687c0.932-0.585,1.96-1.018,2.876-1.451
						c-0.08-1.23-0.177-2.722-0.274-4.214c0.513-0.212,1.026-0.425,1.54-0.637c0,0,0.018,0.009,0.018,0.009
						c0.179,0.112,0.357,0.224,0.536,0.336l0.068,0.096c0.381,0.498,0.762,0.995,1.143,1.493c0.168,0.149,0.336,0.297,0.504,0.446
						l0.056,0.123c0.084,0.142,0.168,0.284,0.252,0.425c0.088,0.096,0.175,0.193,0.263,0.289c0,0,0.056,0.045,0.056,0.045
						c0.163,0.1,0.327,0.2,0.49,0.3c0.158,0.03,0.316,0.061,0.474,0.091c0.528,0.172,1.055,0.345,1.583,0.517
						c0.125,0.051,0.249,0.103,0.374,0.154c0.497,0.278,0.994,0.555,1.492,0.833l0.059,0.048c0.238,0.394,0.477,0.788,0.715,1.181
						c0.09,0.122,0.181,0.245,0.271,0.367c0.271,1.023,0.541,2.047,0.838,3.168c-0.573,0-0.943,0-1.312,0
						c-1.213-3.721-4.662-4.923-7.844-6.592c0.637,1.207,1.273,2.415,2.038,3.865c-0.456,0.064-0.908,0.22-1.334,0.167
						c-0.777-0.098-1.539-0.32-2.307-0.491c-0.217-0.032-0.614-0.117-0.623-0.088c-0.141,0.485-0.233,0.984-0.354,1.564
						C360.653,54.43,360.37,54.315,360.088,54.2z"/>
					<path fill="#242B2C" d="M371.392,56.135c0.369,0,0.739,0,1.312,0c-0.297-1.122-0.567-2.145-0.838-3.168
						c1.789,3.631,3.584,7.259,5.362,10.895c0.467,0.954,0.904,1.925,1.31,2.906c0.115,0.277,0.072,0.619,0.102,0.931
						c-0.44-0.102-0.881-0.204-1.241-0.287c0.427,1.733,0.84,3.41,1.253,5.087c-1.531-3.545-3.043-7.098-4.599-10.631
						C373.204,59.94,372.281,58.045,371.392,56.135z"/>
					<path fill="#253133" d="M360.088,54.2c0.283,0.115,0.565,0.231,0.881,0.36c0.121-0.58,0.213-1.079,0.354-1.564
						c0.008-0.028,0.406,0.056,0.623,0.088c-0.001,0.423-0.166,0.949,0.024,1.253c1.225,1.962,1.087,4.09,0.617,6.146
						c-0.828,3.623-1.876,7.195-2.832,10.788c0.005-1.219-0.021-2.439,0.024-3.657c0.034-0.928-0.174-1.583-1.271-1.544
						c0.867-1.962,1.881-3.875,2.558-5.901C361.761,58.092,360.852,56.122,360.088,54.2z"/>
					<path fill="#101517" d="M429.198,190.857c-0.413-0.215-0.826-0.429-1.239-0.644c3.123-2.327,6.246-4.655,9.369-6.982
						c0.204,0.384,0.409,0.768,0.613,1.152C435.027,186.541,432.113,188.699,429.198,190.857z"/>
					<path fill="#080808" d="M269.288,84.069c0.798-0.22,1.596-0.439,2.537-0.698c-0.339,0.819-0.51,1.234-0.681,1.648
						c-0.063,0.253-0.126,0.505-0.188,0.758l-0.016,0.015c-0.332,0.091-0.664,0.182-0.996,0.274c-0.359,0.1-0.718,0.203-1.077,0.304
						c-0.006-0.339-0.022-0.677-0.016-1.015c0.003-0.21,0.038-0.419,0.058-0.629c0.065-0.122,0.13-0.244,0.196-0.367
						c0.109-0.042,0.154-0.121,0.136-0.238L269.288,84.069z"/>
					<path fill="#101313" d="M290.165,147.229c0.493,0.117,0.987,0.233,1.481,0.35c0,0,0.153,0.015,0.153,0.015l0.153-0.005
						c0.05,0.299,0.101,0.597,0.151,0.896c-0.696,0.15-0.871,0.371-0.404,1.077c0.542,0.82,0.86,1.788,1.275,2.691
						c-0.084,0.025-0.163,0.061-0.238,0.106C291.879,150.649,291.022,148.939,290.165,147.229z"/>
					<path fill="#141619" d="M268.909,84.726c-0.02,0.21-0.055,0.419-0.058,0.629c-0.005,0.338,0.01,0.677,0.016,1.015
						c0.359-0.102,0.717-0.204,1.077-0.304c0.332-0.093,0.664-0.183,0.996-0.274c-0.215,0.223-0.39,0.549-0.652,0.649
						c-0.602,0.231-1.588,0.685-1.809,0.457C267.762,86.161,268.008,85.308,268.909,84.726z"/>
					<path fill="#19171A" d="M470.777,230.32c2.103,0.504,4.206,1.008,6.309,1.513C474.983,231.328,472.88,230.824,470.777,230.32z"
						/>
					<path fill="#1B2222" d="M369.003,164.287c-1.4-0.086-2.799-0.171-4.199-0.257C366.203,164.116,367.603,164.201,369.003,164.287
						z"/>
					<path fill="#1B2222" d="M364.7,163.609c0.019-1.493,0.039-2.986,0.058-4.479C364.739,160.623,364.719,162.116,364.7,163.609z"
						/>
					<path fill="#141619" d="M286.853,90.125c-0.274,0.658,0.502,1.775-0.856,1.96C286.282,91.431,286.567,90.778,286.853,90.125z"
						/>
					<path fill="#242B2C" d="M363.512,46.211c-0.513,0.212-1.026,0.425-1.54,0.637C362.03,45.535,362.598,45.454,363.512,46.211z"/>
					<path fill="#242B2C" d="M365.277,48.145c-0.381-0.498-0.762-0.995-1.143-1.493C364.515,47.15,364.896,47.648,365.277,48.145z"
						/>
					<path fill="#242B2C" d="M370.821,51.37c-0.497-0.278-0.994-0.555-1.492-0.833C369.826,50.815,370.324,51.092,370.821,51.37z"/>
					<path fill="#161B1B" d="M419.668,228.798c-0.612,0.098-1.224,0.196-1.836,0.294
						C418.444,228.994,419.056,228.896,419.668,228.798z"/>
					<path fill="#161B1B" d="M422.159,235.476c-0.081-0.747-0.162-1.494-0.243-2.241
						C421.996,233.982,422.077,234.729,422.159,235.476z"/>
					<path fill="#161B1B" d="M378.222,96.724c0.111-0.488,0.222-0.976,0.333-1.464C378.444,95.748,378.333,96.236,378.222,96.724z"
						/>
					<path fill="#161B1B" d="M378.174,99.166c-0.804-0.266-1.248-0.623-0.34-1.328C377.947,98.281,378.06,98.723,378.174,99.166z"/>
					<path fill="#1D1C20" d="M305.482,52.422c-0.531,0.174-1.063,0.348-1.594,0.522C304.419,52.77,304.951,52.596,305.482,52.422z"
						/>
					<path fill="#242B2C" d="M368.956,50.383c-0.528-0.172-1.055-0.345-1.583-0.517C367.9,50.039,368.428,50.211,368.956,50.383z"/>
					<path fill="#242B2C" d="M371.595,52.599c-0.238-0.394-0.477-0.788-0.715-1.181C371.118,51.812,371.357,52.205,371.595,52.599z"
						/>
					<path fill="#253133" d="M292.736,152.359c0.075-0.045,0.154-0.081,0.238-0.106c0.119,0.041,0.238,0.082,0.358,0.122
						c-0.027,0.342-0.054,0.683-0.081,1.025C293.079,153.054,292.907,152.706,292.736,152.359z"/>
					<path fill="#141619" d="M270.956,85.777c0.063-0.253,0.126-0.505,0.188-0.758c0.104,0.095,0.207,0.19,0.311,0.286
						C271.289,85.462,271.123,85.62,270.956,85.777z"/>
					<path fill="#101313" d="M289.171,144.373c0.1,0.277,0.199,0.554,0.299,0.831C289.371,144.927,289.271,144.65,289.171,144.373z"
						/>
					<path fill="#101313" d="M289.501,145.316c0.086,0.316,0.172,0.632,0.258,0.947
						C289.673,145.948,289.587,145.632,289.501,145.316z"/>
					<path fill="#161B1B" d="M378.836,100.729c-0.091-0.257-0.182-0.514-0.272-0.771
						C378.655,100.215,378.746,100.472,378.836,100.729z"/>
					<path fill="#242B2C" d="M364.066,46.557c-0.179-0.112-0.357-0.224-0.536-0.336C363.709,46.333,363.887,46.445,364.066,46.557z"
						/>
					<path fill="#242B2C" d="M366.898,49.775c-0.163-0.1-0.327-0.2-0.49-0.3C366.571,49.575,366.735,49.675,366.898,49.775z"/>
					<path fill="#1D1C20" d="M307.352,51.875c-0.162,0.046-0.324,0.092-0.485,0.139C307.029,51.968,307.191,51.921,307.352,51.875z"
						/>
					<path fill="#1D1C20" d="M306.771,52.053c-0.209,0.085-0.418,0.169-0.627,0.254C306.353,52.222,306.562,52.138,306.771,52.053z"
						/>
					<path fill="#161B1B" d="M421.163,230.046c-0.073-0.202-0.145-0.404-0.218-0.606
						C421.018,229.642,421.091,229.844,421.163,230.046z"/>
					<path fill="#19171A" d="M468.833,229.684c0.163,0.023,0.326,0.047,0.489,0.07C469.158,229.73,468.995,229.707,468.833,229.684z
						"/>
					<path fill="#161B1B" d="M421.508,230.664c-0.089-0.168-0.178-0.335-0.267-0.503
						C421.33,230.329,421.419,230.496,421.508,230.664z"/>
					<path fill="#141619" d="M289.151,86.436c-0.096,0.174-0.192,0.348-0.288,0.521C288.959,86.784,289.055,86.61,289.151,86.436z"
						/>
					<path fill="#161B1B" d="M421.821,231.947c-0.074-0.207-0.148-0.415-0.221-0.622
						C421.674,231.532,421.747,231.739,421.821,231.947z"/>
					<path fill="#19171A" d="M469.839,229.995c0.171,0.076,0.342,0.152,0.514,0.228C470.181,230.147,470.01,230.071,469.839,229.995
						z"/>
					<path fill="#161B1B" d="M378.507,99.792c-0.085-0.167-0.169-0.334-0.254-0.501C378.338,99.458,378.423,99.625,378.507,99.792z"
						/>
					<path fill="#1B2222" d="M370.027,135.687c0.083,0.222,0.166,0.443,0.249,0.665C370.193,136.13,370.11,135.908,370.027,135.687z
						"/>
					<path fill="#101313" d="M289.981,146.672c0.047,0.116,0.094,0.233,0.141,0.349
						C290.075,146.905,290.028,146.789,289.981,146.672z"/>
					<polygon fill="#242B2C" points="365.837,48.715 365.781,48.592 365.89,48.627 					"/>
					<path fill="#242B2C" d="M366.352,49.43c-0.088-0.096-0.175-0.193-0.263-0.289C366.177,49.237,366.264,49.333,366.352,49.43z"/>
					<path fill="#141619" d="M289.433,85.993c-0.079,0.109-0.158,0.217-0.237,0.326C289.275,86.21,289.354,86.101,289.433,85.993z"
						/>
					<path fill="#141619" d="M288.812,87.043c-0.028,0.109-0.091,0.188-0.191,0.239C288.684,87.202,288.748,87.123,288.812,87.043z"
						/>
					<path fill="#141619" d="M288.488,87.371c-0.015,0.086-0.061,0.149-0.138,0.189C288.396,87.497,288.442,87.434,288.488,87.371z"
						/>
					<path fill="#141619" d="M288.166,88.057c-0.007,0.064-0.04,0.107-0.099,0.131l-0.017-0.112L288.166,88.057z"/>
					<path fill="#141619" d="M287.836,88.584c-0.042,0.094-0.085,0.188-0.127,0.282C287.751,88.772,287.794,88.678,287.836,88.584z"
						/>
					<path fill="#141619" d="M287.444,89.145c0,0,0.037-0.066,0.037-0.067C287.48,89.077,287.444,89.145,287.444,89.145z"/>
					<polygon fill="#141619" points="287.187,89.736 287.183,89.704 287.148,89.738 					"/>
					<polygon fill="#161B1B" points="377.969,97.305 377.988,97.367 377.997,97.323 					"/>
					<path fill="#141619" d="M269.242,84.121c0.018,0.117-0.028,0.197-0.136,0.238c-0.023-0.037-0.068-0.104-0.064-0.107
						C269.104,84.204,269.174,84.164,269.242,84.121z"/>
					<path fill="#1B2222" d="M369.845,135.38c0.091,0.041,0.138,0.111,0.139,0.211C369.865,135.567,369.819,135.497,369.845,135.38z
						"/>
					<path fill="#1B2222" d="M370.454,137.004c0.048,0.099,0.097,0.198,0.145,0.298
						C370.551,137.202,370.503,137.103,370.454,137.004z"/>
					<path fill="#161B1B" d="M420.067,228.771c0,0,0.015-0.002,0.014-0.002c0.023-0.031,0.047-0.062,0.071-0.093
						C420.124,228.708,420.095,228.74,420.067,228.771z"/>
					<polygon fill="#161B1B" points="421.896,232.826 421.894,232.689 421.995,232.756 					"/>
					<path fill="#161B1B" d="M422.187,236.461c-0.047-0.077-0.102-0.151-0.135-0.234c-0.007-0.017,0.066-0.067,0.102-0.101
						C422.165,236.238,422.176,236.349,422.187,236.461z"/>
					<polygon fill="#161B1B" points="422.215,236.666 422.209,236.548 422.317,236.602 					"/>
					<path fill="#178799" d="M292.102,148.484c-0.05-0.299-0.101-0.597-0.151-0.896c0.013-0.112,0.026-0.224,0.039-0.335
						l0.002-0.001c0.692-0.126,1.383-0.251,2.075-0.377c0.687,1.552,1.657,2.791,3.465,3.394c-0.406-1.402-0.735-2.539-1.064-3.676
						c3.16-1.172,6.337-2.302,9.464-3.556c0.497-0.199,0.772-0.954,1.15-1.451c-0.135-0.131-0.269-0.262-0.404-0.393
						c-0.523,0.202-1.06,0.374-1.566,0.613c-1.243,0.587-2.416,1.402-3.718,1.771c-2.779,0.789-5.622,1.354-8.439,2.01
						c-0.213,0.025-0.425,0.05-0.638,0.075c-0.215,0.031-0.43,0.063-0.645,0.094c-0.405-0.838-0.987-1.636-1.182-2.52
						c-0.725-3.288-1.36-6.598-1.956-9.913c-0.434-2.414-0.301-2.347,2.016-3.102c3.921-1.277,8.042-2.176,11.309-4.929
						c1.512-1.274,2.952-2.674,3.244-5.13c-0.635,0.204-1.068,0.343-1.155,0.371c-0.139-3.265-0.113-6.754-0.472-10.203
						c-0.643-6.179-2.973-11.686-7.258-16.272c-1.96-2.098-4.502-2.497-7.092-1.194c-0.329,0.165-0.669,0.308-1.261,0.578
						c0.278-0.761,0.475-1.3,0.671-1.838c0.963-0.297,1.925-0.594,2.888-0.891c0.173,0.004,0.346,0.007,0.519,0.011
						c1.973,0.366,3.746,1.128,5.114,2.65c0.534,0.594,0.967,1.288,1.549,1.825c0.28,0.258,0.799,0.258,1.21,0.374
						c0.045-0.423,0.284-0.974,0.104-1.248c-1.299-1.973-2.776-3.849-5.041-4.742c-1.305-0.515-2.758-0.657-4.225-0.985
						c0.074-0.468,0.147-0.922,0.219-1.375c0.283-0.482,0.566-0.965,0.85-1.447c0.171-0.262,0.342-0.523,0.514-0.784
						c0.887-0.825,1.774-1.649,2.66-2.474c0.469-0.087,0.942-0.159,1.407-0.263c3.836-0.86,7.642-1.901,11.514-2.539
						c3.31-0.546,6.695-0.632,9.923-0.911c-1.679,3.006-3.296,5.832-4.821,8.707c-0.233,0.438-0.04,1.102-0.045,1.661
						c0.501-0.172,1.097-0.224,1.488-0.534c4.044-3.214,8.05-6.491,13.11-8.033c5.45-1.66,10.793-2.185,15.828,1.377
						c4.027,2.849,8.156,5.554,12.21,8.365c2.259,1.567,2.407,1.63,2.776-1.079c0.485-3.559,0.662-7.161,0.97-10.744
						c0.052-0.092,0.039-0.172-0.042-0.241c0.028-0.062,0.02-0.119-0.023-0.17l-0.061-0.065c0.07-0.135,0.139-0.27,0.209-0.406
						c-0.001-0.218-0.002-0.437-0.002-0.655c0.132-1.821,0.264-3.643,0.396-5.464c0.023-0.082,0.026-0.165,0.01-0.248l0.011-0.006
						c0.956-3.593,2.004-7.166,2.832-10.788c0.47-2.056,0.608-4.184-0.617-6.146c-0.19-0.304-0.025-0.829-0.024-1.253
						c0.768,0.171,1.529,0.393,2.307,0.491c0.426,0.054,0.878-0.103,1.334-0.167c-0.765-1.451-1.402-2.658-2.038-3.865
						c3.182,1.669,6.632,2.871,7.844,6.592c0.89,1.91,1.812,3.805,2.661,5.733c1.556,3.534,3.068,7.086,4.599,10.631
						c0.459,2.422,0.941,4.841,1.371,7.268c0.67,3.779-0.625,7.304-1.48,10.88c-0.269,1.126-0.641,2.228-0.967,3.34
						c-0.096,0.291-0.192,0.582-0.288,0.873c-0.056,0.137-0.112,0.274-0.168,0.411c-0.434,1.403-0.869,2.807-1.303,4.21
						c-0.074,0.209-0.149,0.417-0.223,0.626c-0.94,2.415-1.881,4.83-2.85,7.319c-0.883-1.197-1.669-2.303-2.5-3.375
						c-0.581-0.75-1.299-0.827-2.106-0.307c-0.737,0.475-1.572,0.829-2.22,1.4c-0.307,0.27-0.388,0.923-0.383,1.401
						c0.042,4.06,0.255,8.124,0.138,12.178c-0.047,1.634-0.728,3.267-1.234,4.864c-0.339,1.067-0.159,1.864,0.467,2.808
						c1.159,1.747,2.104,3.636,3.138,5.466c-0.046,0.219-0.092,0.437-0.138,0.656c-0.051,0.317-0.102,0.634-0.152,0.95
						c-0.17,0.255-0.446,0.491-0.494,0.768c-1.162,6.648-2.303,13.3-3.432,19.954c-0.06,0.355,0.01,0.733,0.019,1.1
						c-0.132,1.072-0.263,2.143-0.394,3.215c-0.063,0.06-0.09,0.134-0.081,0.22c-0.029,0.879-0.058,1.758-0.087,2.637
						c-0.003,0.113-0.006,0.227-0.009,0.34c-0.009,0.214-0.017,0.428-0.026,0.642c0.012,0.204,0.024,0.408,0.037,0.612
						c-0.001,0.218-0.002,0.435-0.003,0.653c-0.011,0.427-0.022,0.855-0.033,1.282c0.096,0.538,0.192,1.077,0.288,1.615
						c0.002,0.213,0.004,0.426,0.006,0.639c0.124,0.956,0.248,1.912,0.373,2.868c0.398,0.396,0.796,0.793,1.194,1.189
						c0.076-0.505,0.153-1.01,0.229-1.515c-0.165-0.849-0.33-1.698-0.495-2.548c-0.03-0.219-0.06-0.438-0.089-0.658
						c0.301-0.082,0.614-0.263,0.902-0.23c4.882,0.567,9.447-0.69,13.937-2.388c0.483-0.172,0.966-0.343,1.449-0.515
						c0.582-0.215,1.164-0.43,1.746-0.644c0.638-0.234,1.277-0.469,1.915-0.703c0.213-0.077,0.425-0.153,0.638-0.23
						c1.684-0.515,3.367-1.029,5.051-1.544c0.245,0.019,0.489,0.037,0.734,0.056c0.262-0.157,0.524-0.315,0.786-0.472
						c1.556-0.318,3.113-0.636,4.669-0.954c0.639-0.025,1.277-0.05,1.916-0.075c0.645,0.007,1.289,0.013,1.934,0.02
						c0.641,0.078,1.282,0.157,1.923,0.235c0.654,0.108,1.308,0.215,1.963,0.323c0.096,0.084,0.192,0.167,0.288,0.251
						c1.726,0.912,3.451,1.824,5.177,2.736c-0.084,0.081-0.169,0.162-0.253,0.243c-0.467-0.02-0.933-0.041-1.4-0.061
						c-0.635,0.058-1.27,0.116-1.905,0.174c-2.573,0.178-5.147,0.355-7.72,0.533c-0.212,0.024-0.424,0.048-0.636,0.073
						c-0.653,0.043-1.306,0.087-1.959,0.13c-0.157,0.043-0.314,0.085-0.471,0.128c-3.09-0.228-5.913,0.915-8.805,1.708
						c-0.388,0.176-0.775,0.352-1.163,0.528c-0.468,0.08-0.936,0.16-1.403,0.24c-1.26,0.39-2.511,0.809-3.78,1.167
						c-9.463,2.664-17.611,7.617-24.816,14.219c-0.141,0.145-0.281,0.29-0.422,0.436c-0.074,0.079-0.148,0.158-0.223,0.238
						c-0.564,0.559-1.128,1.118-1.692,1.678c-0.183,0.189-0.365,0.378-0.548,0.567c-0.123,0.139-0.247,0.277-0.37,0.416
						c-0.074,0.224-0.148,0.449-0.222,0.673c-0.31,0.937-0.985,1.925-0.865,2.803c0.468,3.407,1.114,6.796,1.857,10.155
						c0.255,1.151,0.709,2.533,1.551,3.234c5.22,4.343,11.139,7.427,17.767,9.021c1.003,0.241,2.121,0.004,3.186-0.012
						c-0.53-0.982-0.969-2.029-1.612-2.931c-1.124-1.576-2.374-3.062-3.863-4.957c1.452,0.128,2.346,0.158,3.224,0.293
						c6.783,1.042,13.556,2.15,20.348,3.129c1.763,0.254,3.673,0.506,5.357,0.102c6.154-1.477,11.724-4.429,17.246-7.428
						c1.903-1.033,3.705-2.251,5.554-3.384c0.802-0.452,1.605-0.905,2.407-1.357c0.055,0.226,0.11,0.452,0.165,0.679
						c0.015,0.102,0.029,0.204,0.045,0.305c-0.036,0.1-0.024,0.192,0.039,0.278c-0.08,0.217-0.161,0.434-0.241,0.651
						c-0.06,0.325-0.12,0.65-0.18,0.975c-0.595,1.772-1.189,3.543-1.784,5.315c-0.064,0.147-0.128,0.295-0.192,0.442
						c-0.05,0.264-0.1,0.528-0.15,0.793c-0.146,0.276-0.292,0.552-0.439,0.828c-0.061,0.169-0.122,0.339-0.183,0.509
						c-0.247,0.687-0.494,1.374-0.741,2.06c-0.15,0.535-0.3,1.071-0.451,1.606c-0.21,0.643-0.42,1.286-0.63,1.929
						c-1.709,4.776-3.472,9.534-5.101,14.337c-0.699,2.06-0.702,4.151,0.632,6.079c0.768,1.11,1.639,1.168,2.687,0.496
						c0.223-0.143,0.444-0.292,0.653-0.456c0.983-0.769,1.721-0.833,1.972,0.647c0.043,0.256,0.168,0.499,0.255,0.748
						c-0.038,0.091-0.03,0.178,0.024,0.261c0.061,0.631,0.122,1.262,0.183,1.893c0.025,0.339,0.049,0.678,0.073,1.016
						c0.062,0.852,0.124,1.704,0.186,2.556c0.003,0.317,0.005,0.635,0.008,0.952c0.017,0.32,0.034,0.64,0.051,0.961
						c-0.027,3.183-0.101,6.366-0.073,9.548c0.075,8.615-0.074,17.229-1.263,25.767c-0.722,5.184-1.698,10.357-2.99,15.425
						c-0.511,2.005-2.151,3.737-3.361,5.537c-0.266,0.396-0.862,0.726-1.346,0.794c-2.94,0.412-5.885,0.81-8.841,1.07
						c-2.102,0.185-4.227,0.104-6.337,0.214c-4.288,0.222-7.264-2.077-5.825-6.945c0.99-3.348,2.199-6.639,3.465-9.895
						c2.662-6.851,5.06-13.763,5.922-21.117c0.875-7.466,0.711-14.864-1.873-22.003c-1.332-3.68-3.056-7.218-4.601-10.821
						c-0.705-1.645-1.404-3.293-2.15-5.044c1.126-0.398,2.173-0.744,3.201-1.143c0.438-0.17,0.914-0.374,1.222-0.703
						c0.271-0.288,0.332-0.773,0.486-1.172c-0.437-0.06-0.927-0.279-1.302-0.154c-2.008,0.669-3.95,1.559-5.984,2.123
						c-4.748,1.317-9.536,2.492-14.308,3.725c-0.135,0.083-0.27,0.167-0.404,0.25c-0.035-0.088-0.1-0.131-0.195-0.132
						c-2.545-0.019-5.089-0.033-7.633-0.058c-0.418-0.004-0.836-0.053-1.382-0.09c0.077-0.555,0.254-1.036,0.177-1.472
						c-0.095-0.546-0.399-1.055-0.612-1.58c-0.355,0.399-0.984,0.776-1.02,1.202c-0.211,2.531-0.552,5.097-0.334,7.607
						c0.257,2.954,1.226,5.842,1.552,8.796c0.672,6.077,1.445,12.172,1.579,18.273c0.149,6.796-0.044,13.638-0.698,20.402
						c-0.493,5.101-1.947,10.11-2.971,15.16c-0.354,1.743-1.474,2.673-3.183,2.871c-6.131,0.711-12.267,1.491-18.449,0.67
						c-2.905-0.386-3.988-3.323-2.373-5.805c2.934-4.51,5.049-9.4,6.269-14.656c0.517-2.227,1.179-4.441,1.446-6.7
						c0.55-4.646,0.974-9.313,1.269-13.983c0.241-3.819,0.436-7.665,0.253-11.48c-0.165-3.433-0.849-6.843-1.351-10.257
						c-0.316-2.153-0.677-4.3-1.093-6.436c-0.263-1.351-0.607-2.693-1.039-3.998c-0.129-0.391-0.678-0.643-1.035-0.959
						c-0.227,0.48-0.655,0.969-0.635,1.438c0.033,0.77,0.357,1.528,0.648,2.633c-1.301-0.161-2.371-0.351-3.449-0.415
						c-3.087-0.185-5.233-1.826-6.802-4.343c-3.292-5.282-6.663-10.518-9.803-15.889c-2.718-4.649-2.939-9.856-2.762-15.093
						c0.21-6.204,1.831-12.154,3.543-18.037c1.686-5.792,3.886-11.435,5.901-17.13c0.154-0.434,0.558-0.96,0.963-1.095
						c2.969-0.992,5.982-1.852,8.941-2.87c0.495-0.17,0.795-0.907,1.185-1.382c-0.511-0.032-1.068-0.214-1.524-0.072
						c-3.148,0.98-6.212,2.357-9.425,2.972c-4.163,0.797-8.413,1.03-12.69,0.288c-3.717-0.645-7.493-1.246-11.25-1.286
						c-3.315-0.035-6.634,0.773-9.961,1.107c-0.609,0.061-1.267-0.365-1.903-0.567c-0.281-0.464-0.561-0.928-0.842-1.392
						c-0.003-0.086-0.03-0.163-0.083-0.231c-0.163-0.478-0.325-0.957-0.488-1.435c-0.2-0.257-0.4-0.514-0.6-0.771
						c-0.163-0.233-0.326-0.465-0.488-0.698C292.258,148.474,292.184,148.461,292.102,148.484z M333.002,136.022
						c7.789,0.082,15.08-3.455,18.05-8.431c3.351-5.613,5.828-11.553,4.403-18.411c-1.184-5.701-3.424-10.721-8.712-13.702
						c-2.43-1.37-5.03-2.668-7.717-3.298c-3.949-0.927-7.839-0.13-11.32,2.111c-1.558,1.003-3.147,1.979-4.593,3.13
						c-4.509,3.588-7.507,8.178-8.164,13.955c-0.593,5.223,0.684,10.121,3.452,14.636
						C322.172,132.166,327.659,135.444,333.002,136.022z M350.359,92.065c-0.652-0.548-0.891-0.82-1.189-0.988
						c-1.573-0.887-3.138-1.793-4.747-2.609c-3.493-1.772-7.085-2.839-11.072-1.774c-5.005,1.337-9.088,4.291-13.147,7.296
						c-0.323,0.239-0.343,0.887-0.504,1.345c0.581-0.016,1.283,0.175,1.725-0.082c2.752-1.602,5.386-3.413,8.176-4.942
						c3.013-1.651,6.214-3.088,9.739-1.872c2.251,0.776,4.353,1.981,6.53,2.976c0.916,0.418,1.831,0.87,2.794,1.14
						C349.046,92.661,349.554,92.315,350.359,92.065z M369.14,68.862c0.191-0.124,0.382-0.247,0.574-0.371
						c-0.375-0.461-0.75-0.922-1.125-1.383c-0.454,0.638-0.909,1.275-1.358,1.917c-0.021,0.03,0.012,0.103,0.027,0.154
						c0.468,1.574,0.708,3.266,1.448,4.701c2.16,4.185,2.389,8.442,0.981,12.855c-0.84,2.63-1.751,5.239-2.531,7.887
						c-0.128,0.433,0.259,1.018,0.409,1.533c0.408-0.308,1.04-0.534,1.187-0.937c1.051-2.883,2.125-5.768,2.96-8.718
						c1.332-4.708,1.052-9.318-1.214-13.761C369.88,71.531,369.584,70.159,369.14,68.862z M289.397,133.907
						c1.173,1.335,4.017,1.032,4.648-0.292c0.102-0.214,0.137-0.611,0.012-0.744c-0.181-0.194-0.582-0.37-0.81-0.3
						C292.005,132.954,290.786,133.415,289.397,133.907z"/>
					<path fill="#187072" d="M336.49,227.621c2.353,0.401,4.712,0.758,7.045,1.241c0.435,0.09,0.997,0.632,1.107,1.066
						c2.107,8.283,2.908,16.677,2.022,25.205c-0.517,4.978-0.919,9.97-1.543,14.935c-0.297,2.359-0.739,4.762-1.564,6.978
						c-1.401,3.767-3.149,7.405-4.778,11.086c-0.107,0.241-0.444,0.552-0.664,0.544c-3.016-0.108-6.083,0.03-9.027-0.502
						c-2.478-0.448-3.489-2.488-3.43-5.021c0.056-2.383,1.036-4.445,2.139-6.446c3.447-6.258,5.547-13,7.086-19.916
						c1.334-5.995,1.653-12.113,1.612-18.249C336.47,234.948,336.49,231.354,336.49,227.621z"/>
					<path fill="#0C0E0E" d="M292.814,149.223c0.2,0.257,0.4,0.514,0.6,0.772c0.163,0.479,0.326,0.957,0.489,1.435
						c0.053,0.068,0.08,0.145,0.083,0.231c-0.017,0.242-0.033,0.484-0.05,0.725c-0.202-0.004-0.403-0.007-0.605-0.011
						c-0.119-0.041-0.238-0.081-0.357-0.122c-0.415-0.904-0.734-1.872-1.275-2.692c-0.467-0.706-0.292-0.927,0.404-1.077
						c0.081-0.024,0.156-0.01,0.223,0.041C292.489,148.758,292.651,148.991,292.814,149.223z"/>
					<path fill="#253133" d="M293.935,152.387c0.017-0.242,0.033-0.484,0.05-0.725c0.281,0.464,0.561,0.928,0.842,1.392
						C294.53,152.831,294.233,152.609,293.935,152.387z"/>
					<path fill="#603E90" d="M411.653,161.371c0.964-1.154,1.987-2.264,2.882-3.47c2.493-3.361,5.241-6.413,9.097-8.281
						c2.322-1.124,4.488-2.794,6.928-3.406c6.07-1.521,12.277-1.927,18.528-0.93c3.215,0.513,5.709,2.462,8.091,4.314
						c2.962,2.303,5.748,4.977,8.084,7.91c3.781,4.748,6.977,9.962,8.848,15.783c0.646,2.01,0.519,4.334,0.434,6.503
						c-0.234,5.942-0.329,11.916-1.057,17.806c-0.659,5.332-1.627,10.617-1.533,16.013c0.104,5.922,2.463,10.901,6.398,15.222
						c0.401,0.44,0.671,1.001,1.002,1.505c-0.512-0.012-1.025-0.023-1.537-0.035c-0.34-0.069-0.68-0.138-1.021-0.207
						c-0.114-0.005-0.227-0.011-0.341-0.016c-0.531-0.112-1.063-0.223-1.595-0.335c-0.382-0.031-0.763-0.062-1.145-0.092
						c-0.149-0.069-0.298-0.139-0.447-0.208c-5.006-1.34-9.692-3.449-14.27-5.843c-5.245-2.743-8.248-7.188-9.839-12.727
						c-1.924-6.7-1.932-13.543-1.58-20.432c0.214-4.185-0.227-8.304-2.432-12.008c1.95-2.348,3.943-4.619,5.781-7.008
						c1.193-1.55,2.202-3.249,3.194-4.939c0.21-0.358-0.01-0.968-0.031-1.462c-0.484,0.106-1.108,0.054-1.428,0.342
						c-2.073,1.864-4.015,3.875-6.132,5.684c-1.153,0.986-2.565,1.669-3.73,2.407c-1.428-2.174-2.401-4.16-3.836-5.719
						c-2.112-2.294-5.237-2.708-8.1-3.46c-1.206-0.317-2.524-0.208-3.791-0.295c-0.529-0.036-1.1,0.04-1.58-0.133
						c-3.987-1.436-8.132-1.518-12.294-1.586C412.678,162.259,412.168,161.684,411.653,161.371z"/>
					<path fill="#1C70AE" d="M437.328,183.23c-3.123,2.327-6.246,4.655-9.369,6.982c-1.794,1.13-3.588,2.259-5.381,3.389
						c-0.232,0.151-0.465,0.302-0.697,0.453c0,0,0.017-0.012,0.017-0.012c-0.193,0.13-0.387,0.26-0.58,0.389l-0.022,0.01
						c-0.195,0.077-0.396,0.14-0.583,0.234c-5.328,2.683-10.601,5.482-16.004,8.003c-2.33,1.087-4.903,2.129-7.409,2.244
						c-3.455,0.159-6.969-0.461-10.427-0.959c-5.604-0.807-11.181-1.793-16.772-2.687c-1.421-0.227-1.984,0.483-1.346,1.817
						c0.499,1.043,1.187,1.999,1.834,2.966c0.529,0.791,1.12,1.54,1.811,2.482c-4.787-0.577-11.083-3.72-14.208-5.974
						c-1.024-0.738-2.365-1.403-2.855-2.436c-0.968-2.041-1.632-4.278-2.073-6.503c-0.512-2.583-0.65-5.24-0.95-7.865
						c0.214-0.018,0.429-0.035,0.643-0.053c0.134-0.067,0.269-0.133,0.403-0.2l-0.028,0.017c0.134-0.124,0.267-0.247,0.401-0.371
						c0.314-0.353,0.604-0.734,0.947-1.056c4.135-3.886,8.526-7.381,13.566-10.104c4.273-2.309,8.599-4.373,13.287-5.655
						c0.337-0.092,0.635-0.324,0.952-0.49c1.916-0.548,3.833-1.095,5.749-1.643c0.183-0.092,0.367-0.183,0.55-0.275
						c1.104-0.25,2.207-0.5,3.311-0.75l0.157,0.032l0.151-0.054c0.318-0.053,0.635-0.106,0.953-0.16
						c0.221-0.028,0.441-0.056,0.662-0.084c4.668-0.376,9.335-0.774,14.006-1.117c1.852-0.136,3.712-0.146,5.569-0.214
						c0.538,0.025,1.077,0.049,1.615,0.074c1.773,0.106,3.545,0.211,5.318,0.317c0.138,0.047,0.275,0.093,0.412,0.14
						c0.439,0.081,0.877,0.161,1.59,0.292c-0.563,0.236-0.905,0.38-1.247,0.523c-0.103,0.01-0.206,0.021-0.309,0.031
						c-2.568,0.507-5.136,1.013-7.703,1.52c-0.183,0.089-0.367,0.177-0.55,0.266c-1.1,0.19-2.2,0.38-3.3,0.569
						c-0.105,0.058-0.21,0.116-0.315,0.175c-3.744,0.945-7.489,1.89-11.233,2.835c-0.238,0.095-0.475,0.19-0.713,0.285l0.005-0.017
						c-1.822,0.568-3.738,0.934-5.448,1.74c-5.417,2.551-11.224,4.348-16.1,7.959c-1.859,1.377-3.589,2.962-5.206,4.619
						c-0.707,0.724-1.074,1.883,0.635,2.188c1.081,0.193,2.219,0.268,3.22,0.672c2.811,1.136,5.699,0.738,8.587,0.7
						c5.565-0.073,10.718-1.95,15.924-3.57c3.992-1.243,7.935-2.644,11.9-3.975c1.826-0.746,3.653-1.492,5.479-2.238
						c0.216-0.105,0.432-0.209,0.649-0.314c2.029-0.858,4.057-1.716,6.086-2.574c0.015,0.238,0.029,0.476,0.044,0.714
						c-0.031,0.087-0.032,0.175-0.001,0.262c-0.117,0.068-0.234,0.136-0.351,0.204c-0.214,0.144-0.428,0.289-0.642,0.434
						l-0.006,0.005c-0.631,0.429-1.262,0.857-1.893,1.286c-0.335,0.134-0.67,0.268-1.005,0.402
						c-0.109,0.076-0.218,0.152-0.327,0.228c-0.635,0.353-1.27,0.706-1.906,1.059c-0.334,0.18-0.669,0.361-1.003,0.541
						c-0.095,0.084-0.189,0.168-0.284,0.252c-0.252,0.115-0.505,0.23-0.757,0.345c-2.314,1.107-4.627,2.213-6.941,3.32
						c-0.106,0.091-0.212,0.182-0.318,0.274c-0.326,0.163-0.651,0.325-0.977,0.488c-0.105,0.042-0.209,0.085-0.314,0.127
						c-0.643,0.232-1.286,0.464-1.928,0.695c-0.138,0.038-0.277,0.076-0.415,0.114l-0.024,0.032
						c-0.126,0.135-0.251,0.27-0.377,0.405c-0.259,0.047-0.519,0.094-0.779,0.141c-0.108,0.077-0.216,0.154-0.324,0.231
						c-1.816,0.734-3.632,1.468-5.448,2.203c-0.168,0.104-0.337,0.208-0.505,0.313c-0.759,0.169-1.534,0.287-2.274,0.517
						c-2.185,0.679-4.356,1.402-6.533,2.107c-0.105,0.004-0.211,0.007-0.316,0.011c-0.217,0.013-0.435,0.026-0.652,0.039
						c-0.102,0-0.204-0.001-0.306-0.001c-0.326,0.001-0.653,0.002-0.979,0.004c-0.169,0.065-0.339,0.129-0.508,0.194
						c-0.074-0.096-0.154-0.101-0.239-0.013c-0.275-0.045-0.55-0.09-0.825-0.135c-0.333,0.002-0.667,0.004-1,0.006
						c-0.169,0.045-0.337,0.09-0.505,0.134c-1.435,0.057-2.871,0.113-4.306,0.17c-0.149,0.058-0.299,0.117-0.448,0.175
						c-2.143,0.105-3.996,0.93-5.642,2.27c-0.187,0.123-0.374,0.245-0.561,0.368c-0.178,0.416-0.357,0.832-0.535,1.248
						c0.152,0.099,0.304,0.197,0.456,0.296c1.684,0.452,3.368,0.904,5.051,1.355c0.135,0.083,0.269,0.166,0.404,0.249
						c2.228,0.342,4.457,0.684,6.685,1.026c0.334,0.069,0.667,0.137,1.001,0.206c1.503,0.143,3.006,0.286,4.509,0.429
						c0.105-0.022,0.21-0.044,0.315-0.066c0.219-0.009,0.439-0.017,0.658-0.026c0.101,0.005,0.203,0.01,0.304,0.015
						c0.224-0.021,0.448-0.042,0.672-0.063c0.168-0.042,0.335-0.084,0.503-0.127c0.802,0.013,1.605,0.025,2.407,0.038l0.118,0.046
						l0.123-0.027c2.974-0.575,6.064-0.817,8.895-1.801c4.519-1.57,8.866-3.634,13.286-5.49c0.084-0.077,0.168-0.154,0.251-0.231
						c4.412-2.548,8.823-5.095,13.235-7.643c0.099-0.123,0.199-0.245,0.298-0.368c1.172-0.762,2.344-1.524,3.516-2.286
						c0.185-0.177,0.369-0.354,0.554-0.53c0.783-0.45,1.566-0.901,2.348-1.351c0.23-0.206,0.46-0.412,0.691-0.618
						c0.765-0.573,1.529-1.147,2.294-1.72c1.037-0.718,2.074-1.436,3.111-2.153c0.172-0.195,0.344-0.39,0.516-0.585
						c1.214-0.883,2.428-1.765,3.642-2.648c0.126-0.199,0.252-0.398,0.378-0.597c0.412-0.327,0.824-0.654,1.237-0.982
						c0.175-0.195,0.351-0.39,0.526-0.585c0.247,0,0.495,0,0.96,0c-0.656,0.952-1.229,1.782-1.801,2.612
						c-0.223,0.282-0.446,0.564-0.669,0.846l0.01-0.006c-0.117,0.109-0.235,0.218-0.352,0.327c-0.995,0.991-1.99,1.983-2.985,2.974
						c-0.216,0.28-0.433,0.559-0.65,0.837C441.291,179.959,439.31,181.594,437.328,183.23z"/>
					<path fill="#175F6B" d="M423.123,178.766c1.66-0.098,3.338-0.075,4.976-0.322c2.449-0.369,4.87-0.927,7.302-1.405
						c0.374-0.179,0.749-0.358,1.123-0.538c1.37-0.309,2.741-0.619,4.489-1.014c-0.78,0.674-1.283,1.109-1.786,1.544
						c-4.162,2.808-8.325,5.616-12.487,8.423c-0.336,0.2-0.673,0.399-1.009,0.599c-1.389,0.816-2.778,1.632-4.168,2.448
						c-0.087,0.048-0.174,0.095-0.261,0.143c-1.502,0.864-3.005,1.728-4.507,2.592c-0.271,0.181-0.541,0.361-0.812,0.542
						c-1.346,0.619-2.692,1.238-4.038,1.857l-0.131,0.016l-0.029,0.131c-1.123,0.481-2.246,0.962-3.37,1.443
						c-0.09,0.052-0.18,0.104-0.27,0.155c-0.538,0.243-1.075,0.486-1.613,0.73c-0.209,0.092-0.419,0.184-0.628,0.276
						c-0.258,0.049-0.52,0.081-0.773,0.148c-2.899,0.768-5.764,1.717-8.705,2.254c-2.222,0.406-4.54,0.288-6.815,0.403
						c-0.109-0.018-0.218-0.036-0.328-0.053c-1.63-0.08-3.26-0.16-4.889-0.241c-0.216-0.078-0.433-0.155-0.649-0.233
						c-0.217,0.002-0.434,0.004-0.651,0.006c-0.093-0.066-0.194-0.085-0.304-0.056c-1.178-0.116-2.356-0.232-3.534-0.347
						c-0.215-0.087-0.429-0.173-0.644-0.26c-1.504-0.322-3.008-0.644-4.512-0.966c-0.206-0.124-0.412-0.248-0.618-0.372
						c-0.303-1.104,1.007-1,1.262-1.687c0.217-0.092,0.434-0.184,0.652-0.276c2.403-0.28,4.801-0.719,7.211-0.805
						c3.786-0.136,7.616,0.195,11.082-1.821c0.215-0.079,0.43-0.158,0.645-0.237c3.883-1.539,7.818-2.96,11.632-4.655
						c3.149-1.399,6.154-3.121,9.222-4.701c2.14-1.043,4.28-2.086,6.421-3.13c0.107-0.113,0.213-0.225,0.32-0.338
						c0.338-0.076,0.677-0.152,1.014-0.227c-0.001,0.001,0.099,0.041,0.099,0.041L423.123,178.766z"/>
					<path fill="#175F6B" d="M399.141,171.275c0.858-0.226,1.716-0.451,2.574-0.677c0.214-0.081,0.428-0.163,0.642-0.245
						c0.651-0.025,1.228,0.023,0.903,0.936c-0.159,0.447-0.352,0.884-0.491,1.337c-0.606,1.986,0.057,3.872,1.993,4.582
						c1.747,0.641,3.663,0.821,5.505,1.204c0.125,0.033,0.25,0.065,0.375,0.098c0.548,0.165,1.097,0.329,1.645,0.494l0.003-0.002
						c-0.849,0.357-1.697,0.713-2.546,1.07c-3.98,1.178-8.007,2.219-11.929,3.566c-5.928,2.036-11.881,3.715-18.24,3.544
						c-2.695-0.072-5.324-0.256-8.005-1.288c0.44-0.605,0.684-1.214,1.133-1.516c3.44-2.303,6.753-4.883,10.432-6.724
						c4.644-2.324,9.596-4.03,14.415-6.003c0.426-0.11,0.851-0.22,1.277-0.329C398.931,171.306,399.036,171.29,399.141,171.275z"/>
					<path fill="#0E1113" d="M383.094,198.672c0.217-0.002,0.434-0.004,0.651-0.006c0.216,0.078,0.433,0.155,0.649,0.233
						c1.63,0.08,3.26,0.16,4.888,0.24c0.109,0.018,0.219,0.036,0.329,0.054c2.275-0.115,4.593,0.003,6.815-0.403
						c2.941-0.537,5.806-1.487,8.705-2.254c0.253-0.067,0.515-0.1,0.773-0.148c0.209-0.092,0.419-0.184,0.628-0.276
						c0.538-0.243,1.075-0.486,1.613-0.73c0.108-0.021,0.198-0.073,0.27-0.155c1.123-0.481,2.246-0.962,3.369-1.443
						c0.059-0.043,0.113-0.092,0.161-0.148c1.346-0.619,2.692-1.238,4.039-1.856c0.271-0.181,0.541-0.361,0.811-0.542
						c1.502-0.864,3.005-1.728,4.507-2.592c0.102-0.021,0.189-0.068,0.261-0.143c1.389-0.816,2.778-1.632,4.168-2.448
						c0.337-0.2,0.673-0.399,1.009-0.599c4.163-2.808,8.325-5.615,12.487-8.423c0.041,0.416,0.081,0.833,0.122,1.25
						c-0.764,0.574-1.529,1.147-2.294,1.721c-0.23,0.206-0.46,0.412-0.691,0.618c-0.783,0.45-1.566,0.901-2.349,1.351
						c-0.185,0.177-0.369,0.354-0.554,0.531c-1.172,0.762-2.344,1.524-3.516,2.286c-0.099,0.123-0.199,0.245-0.298,0.368
						c-4.412,2.548-8.823,5.095-13.235,7.643c-0.084,0.077-0.168,0.154-0.251,0.231c-4.42,1.855-8.767,3.919-13.286,5.49
						c-2.832,0.984-5.921,1.226-8.895,1.801c-0.074-0.089-0.154-0.095-0.241-0.019c-0.802-0.013-1.605-0.025-2.408-0.038
						c-0.168,0.042-0.335,0.084-0.502,0.127c-0.224,0.021-0.448,0.042-0.672,0.063c-0.101-0.005-0.203-0.01-0.304-0.015
						c-0.219,0.009-0.439,0.017-0.658,0.026c-0.105,0.022-0.21,0.044-0.315,0.066c-1.503-0.143-3.006-0.286-4.509-0.429
						c-0.334-0.069-0.667-0.137-1.001-0.206c-2.228-0.342-4.457-0.684-6.685-1.026c-0.135-0.083-0.269-0.166-0.404-0.249
						c-1.684-0.452-3.368-0.904-5.051-1.355c-0.152-0.099-0.304-0.197-0.456-0.296c0.178-0.416,0.357-0.832,0.535-1.248
						c0.187-0.123,0.374-0.245,0.561-0.368c1.646-1.34,3.5-2.165,5.643-2.27c0.15-0.058,0.299-0.117,0.448-0.175
						c1.435-0.057,2.871-0.113,4.306-0.17c0.169-0.045,0.337-0.09,0.505-0.135c0.333-0.002,0.667-0.004,1-0.006
						c0.275,0.045,0.55,0.09,0.825,0.135c0.085-0.087,0.165-0.083,0.24,0.014c0.17-0.065,0.339-0.129,0.508-0.194
						c0.326-0.001,0.653-0.002,0.979-0.004c0.102,0.001,0.204,0.001,0.306,0.001c0.217-0.013,0.435-0.026,0.652-0.039
						c0.105-0.004,0.211-0.007,0.316-0.011c2.177-0.706,4.348-1.429,6.533-2.107c0.74-0.23,1.515-0.348,2.275-0.517
						c0.169-0.104,0.337-0.208,0.505-0.313c1.816-0.734,3.632-1.468,5.448-2.203c0.068,0.044,0.135,0.088,0.203,0.132
						c0.041-0.121,0.081-0.242,0.121-0.363c0.259-0.047,0.519-0.094,0.779-0.141c0.126-0.135,0.251-0.27,0.377-0.405
						c0,0,0.024-0.032,0.024-0.031c0.139-0.037,0.277-0.076,0.415-0.115c0.643-0.232,1.286-0.464,1.928-0.695
						c0.105-0.042,0.209-0.085,0.314-0.127c0.326-0.163,0.652-0.325,0.977-0.488c0.106-0.091,0.212-0.183,0.318-0.274
						c2.314-1.107,4.627-2.213,6.941-3.32c0.146,0.02,0.291,0.04,0.436,0.061c-0.001,0.298-0.002,0.597-0.003,0.895
						c-3.069,1.579-6.073,3.301-9.222,4.7c-3.814,1.695-7.749,3.116-11.632,4.655c-0.215,0.079-0.43,0.158-0.645,0.237
						c-3.466,2.016-7.296,1.685-11.082,1.821c-2.41,0.086-4.808,0.525-7.211,0.805c-0.217,0.092-0.434,0.184-0.652,0.276
						c-0.255,0.686-1.565,0.583-1.262,1.686c0.206,0.124,0.412,0.248,0.618,0.372c1.504,0.322,3.008,0.644,4.512,0.966
						c0.215,0.086,0.429,0.173,0.644,0.26c1.178,0.116,2.356,0.232,3.534,0.347C382.892,198.634,382.993,198.653,383.094,198.672z"
						/>
					<path fill="#178497" d="M417.944,176.726c-3.854,0.763-7.69,0.52-11.463-0.419c-2.246-0.559-2.662-1.657-1.808-3.837
						c0.607-1.548,0.95-3.336,3.143-3.43c0.177-0.073,0.353-0.145,0.53-0.218c0.891-0.195,1.781-0.389,2.672-0.584
						c0.207-0.061,0.414-0.122,0.621-0.183c2.818-1.209,4.383,0.302,5.654,2.557c0.703,1.246,1.498,2.441,2.264,3.651
						c0.532,0.841,0.426,1.494-0.518,1.932C418.674,176.372,418.309,176.549,417.944,176.726z"/>
					<path fill="#0E1113" d="M397.55,171.65c-4.819,1.973-9.772,3.679-14.415,6.003c-3.679,1.841-6.991,4.42-10.432,6.724
						c-0.45,0.301-0.694,0.911-1.133,1.516c2.682,1.032,5.31,1.216,8.005,1.288c6.36,0.171,12.312-1.507,18.24-3.544
						c3.922-1.347,7.949-2.388,11.929-3.566c0.31,0.286,0.62,0.572,0.93,0.858c-3.965,1.331-7.908,2.732-11.9,3.975
						c-5.206,1.62-10.359,3.497-15.924,3.57c-2.888,0.038-5.776,0.435-8.587-0.7c-1.001-0.404-2.139-0.48-3.22-0.672
						c-1.709-0.305-1.342-1.463-0.635-2.188c1.618-1.657,3.347-3.242,5.206-4.619c4.876-3.611,10.683-5.408,16.1-7.959
						c1.71-0.805,3.626-1.172,5.448-1.74C397.292,170.948,397.421,171.299,397.55,171.65z"/>
					<path fill="#0E1113" d="M352.956,185.71c-0.214,0.018-0.429,0.036-0.643,0.053c-0.106-0.109-0.212-0.219-0.318-0.328
						c0.074-0.224,0.148-0.449,0.222-0.673c0.124-0.139,0.247-0.277,0.37-0.416c0.183-0.189,0.365-0.378,0.548-0.567
						c0.564-0.559,1.128-1.118,1.692-1.678c0.074-0.079,0.149-0.158,0.223-0.238c0.141-0.145,0.281-0.29,0.421-0.436
						c7.205-6.602,15.354-11.555,24.816-14.219c1.269-0.357,2.52-0.776,3.78-1.167c-0.528,0.603-1.056,1.205-1.585,1.808
						c-0.316,0.167-0.615,0.398-0.952,0.49c-4.688,1.282-9.014,3.346-13.287,5.655c-5.041,2.723-9.431,6.219-13.566,10.104
						c-0.343,0.323-0.633,0.703-0.947,1.056c-0.134,0.124-0.267,0.247-0.401,0.371c0,0,0.028-0.017,0.027-0.017
						C353.225,185.577,353.09,185.644,352.956,185.71z"/>
					<path fill="#1B2222" d="M430.921,173.245c-0.836,0.587-1.672,1.175-2.509,1.762c-0.166-0.483-0.332-0.966-0.498-1.449
						c-0.184-0.018-0.367-0.036-0.551-0.055c-0.119-0.074-0.237-0.148-0.356-0.223l-0.001,0.077
						c-0.127-0.001-0.254-0.002-0.381-0.003l-0.026-0.094c-0.215,0.125-0.429,0.251-0.644,0.376l0.003,0.103
						c-0.286-0.193-0.572-0.386-0.858-0.579c1.404-0.712,2.808-1.424,4.213-2.137c-0.39,0.472-0.78,0.944-1.288,1.558
						c0.379,0.04,0.681,0.072,1.13,0.119c-0.118,0.361-0.226,0.689-0.364,1.11C429.582,173.601,430.251,173.423,430.921,173.245z"/>
					<path fill="#17528E" d="M426.6,173.26c0,0,0.026,0.094,0.027,0.094c0.127,0.001,0.254,0.002,0.381,0.003
						c0,0,0.001-0.077,0.001-0.077c0.119,0.074,0.237,0.148,0.356,0.223c0.184,0.018,0.367,0.036,0.55,0.054
						c-0.194,0.287-0.387,0.575-0.58,0.863c-0.731,0.455-1.462,0.91-2.193,1.365c-0.345,0.204-0.69,0.408-1.035,0.612
						c0,0-0.003-0.009-0.002-0.008c-0.165,0.106-0.331,0.211-0.496,0.317c-0.139-0.034-0.278-0.067-0.417-0.101
						c-0.071-0.075-0.158-0.104-0.259-0.087c-0.015-0.238-0.029-0.476-0.044-0.714c1.023-0.687,2.046-1.374,3.071-2.063
						c0.001-0.002-0.002-0.105-0.001-0.105C426.172,173.512,426.386,173.386,426.6,173.26z"/>
					<path fill="#080808" d="M477.816,230.306c0.512,0.012,1.025,0.023,1.537,0.035c0.378-0.025,0.756-0.065,1.134-0.071
						c0.286-0.005,0.595-0.024,0.849,0.077c0.12,0.048,0.241,0.471,0.178,0.532c-0.202,0.193-0.485,0.402-0.746,0.415
						c-1.004,0.05-2.011,0.025-3.017,0.029c-0.206-0.313-0.411-0.626-0.617-0.939C477.361,230.358,477.588,230.332,477.816,230.306z
						"/>
					<path fill="#0E1113" d="M390.394,160.228c-1.684,0.515-3.367,1.029-5.051,1.544c0.168-0.233,0.301-0.628,0.511-0.674
						C387.359,160.768,388.879,160.509,390.394,160.228z"/>
					<path fill="#0E1113" d="M363.452,158.504c0.131-1.072,0.263-2.143,0.394-3.215c1.524-0.008,0.64,1.14,0.803,1.758
						c0.089,0.335-0.095,0.743-0.157,1.118c-0.214,0.11-0.428,0.22-0.641,0.329C363.718,158.497,363.585,158.501,363.452,158.504z"
						/>
					<path fill="#0E1113" d="M406.226,162.703c0.635-0.058,1.27-0.116,1.905-0.174C407.496,162.588,406.861,162.646,406.226,162.703
						z"/>
					<path fill="#1B2222" d="M422.211,174.51c0.642-0.346,1.283-0.692,1.925-1.038C424.064,174.875,423.019,174.473,422.211,174.51z
						"/>
					<path fill="#0E1113" d="M384.705,162.001c-0.638,0.234-1.277,0.469-1.915,0.703
						C383.428,162.47,384.067,162.236,384.705,162.001z"/>
					<path fill="#101619" d="M420.037,178.708c0.631-0.429,1.262-0.857,1.893-1.286
						C421.299,177.851,420.668,178.279,420.037,178.708z"/>
					<path fill="#1B2222" d="M434.158,171.101c-0.441,0.297-0.881,0.594-1.322,0.892
						C433.022,170.852,433.292,170.67,434.158,171.101z"/>
					<path fill="#0E1113" d="M427.333,174.42c0.193-0.288,0.386-0.575,0.58-0.863c0.167,0.483,0.333,0.966,0.499,1.449
						c-0.097,0.068-0.195,0.136-0.292,0.204C427.858,174.947,427.596,174.684,427.333,174.42z"/>
					<path fill="#0E1113" d="M398.499,158.783c-0.639,0.025-1.277,0.05-1.916,0.075C397.222,158.833,397.86,158.808,398.499,158.783
						z"/>
					<path fill="#0E1113" d="M402.356,159.038c-0.641-0.078-1.282-0.157-1.923-0.235
						C401.074,158.881,401.715,158.96,402.356,159.038z"/>
					<path fill="#1B2222" d="M364.755,166.482c0.03,0.219,0.06,0.438,0.089,0.658c-0.434,0.002-0.867,0.004-1.301,0.006
						c-0.002-0.213-0.004-0.426-0.006-0.639C363.944,166.498,364.349,166.49,364.755,166.482z"/>
					<path fill="#19171A" d="M474.859,229.747c0.532,0.112,1.063,0.223,1.595,0.335C475.868,230.23,475.076,231.357,474.859,229.747
						z"/>
					<path fill="#1B2222" d="M426.394,176.437c-0.101,0.228-0.202,0.456-0.303,0.684c-0.327,0.021-0.654,0.042-0.981,0.063
						c-0.021-0.129-0.041-0.259-0.061-0.388C425.497,176.677,425.945,176.557,426.394,176.437z"/>
					<path fill="#1B2222" d="M429.973,170.687c0.529-0.305,1.059-0.61,1.588-0.915C431.032,170.077,430.503,170.382,429.973,170.687
						z"/>
					<path fill="#1B2222" d="M363.25,164.89c0.011-0.427,0.022-0.855,0.033-1.282C363.272,164.035,363.261,164.463,363.25,164.89z"
						/>
					<path fill="#0E1113" d="M417.944,176.726c0.365-0.177,0.73-0.354,1.094-0.531C418.674,176.372,418.309,176.549,417.944,176.726
						z"/>
					<path fill="#0E1113" d="M415.208,163.66c-0.538-0.025-1.077-0.049-1.615-0.074C414.132,163.611,414.67,163.636,415.208,163.66z
						"/>
					<path fill="#0E1113" d="M381.043,163.348c-0.483,0.172-0.966,0.343-1.449,0.515C380.077,163.692,380.56,163.52,381.043,163.348
						z"/>
					<path fill="#0E1113" d="M436.525,176.501c-0.374,0.179-0.749,0.358-1.123,0.538C435.776,176.86,436.15,176.681,436.525,176.501
						z"/>
					<path fill="#101517" d="M447.251,174.19c0.223-0.282,0.446-0.564,0.669-0.846C447.697,173.626,447.474,173.908,447.251,174.19z
						"/>
					<path fill="#0E1113" d="M385.473,165.803c0.388-0.176,0.775-0.352,1.163-0.528
						C386.248,165.451,385.861,165.627,385.473,165.803z"/>
					<path fill="#0E1113" d="M424.106,176.397c0.345-0.204,0.69-0.408,1.035-0.612C424.796,175.989,424.451,176.193,424.106,176.397
						z"/>
					<path fill="#0E1113" d="M411.639,168.055c-0.207,0.061-0.414,0.122-0.621,0.183
						C411.225,168.177,411.432,168.116,411.639,168.055z"/>
					<path fill="#1B2222" d="M363.286,162.955c-0.012-0.204-0.024-0.408-0.037-0.612
						C363.261,162.547,363.273,162.751,363.286,162.955z"/>
					<path fill="#0E1113" d="M391.914,159.812c-0.262,0.157-0.524,0.315-0.786,0.472
						C391.39,160.127,391.652,159.969,391.914,159.812z"/>
					<path fill="#0E1113" d="M402.357,170.354c-0.214,0.082-0.428,0.163-0.642,0.245
						C401.929,170.517,402.143,170.435,402.357,170.354z"/>
					<path fill="#0E1113" d="M423.608,176.706c0.165-0.106,0.331-0.211,0.496-0.317c0.056,0.19,0.112,0.38,0.169,0.57
						C424.051,176.874,423.829,176.79,423.608,176.706z"/>
					<path fill="#101517" d="M443.273,178.323c0.217-0.279,0.434-0.558,0.65-0.837C443.706,177.764,443.489,178.043,443.273,178.323
						z"/>
					<path fill="#101619" d="M415.796,180.938c0.334-0.18,0.669-0.361,1.003-0.541C416.465,180.577,416.13,180.757,415.796,180.938z
						"/>
					<path fill="#0E1113" d="M397.87,163.309c0.212-0.024,0.424-0.049,0.636-0.073C398.294,163.261,398.082,163.285,397.87,163.309z
						"/>
					<path fill="#101517" d="M446.997,172.299c-0.126,0.199-0.252,0.398-0.378,0.597
						C446.745,172.697,446.871,172.498,446.997,172.299z"/>
					<path fill="#101619" d="M421.936,177.418c0.214-0.145,0.428-0.289,0.642-0.434C422.364,177.129,422.15,177.273,421.936,177.418
						z"/>
					<path fill="#19171A" d="M477.816,230.306c-0.228,0.026-0.455,0.052-0.683,0.078c-0.113-0.095-0.225-0.19-0.338-0.285
						C477.135,230.168,477.476,230.237,477.816,230.306z"/>
					<path fill="#0E1113" d="M404.607,159.612c-0.096-0.084-0.192-0.167-0.288-0.251
						C404.415,159.445,404.511,159.528,404.607,159.612z"/>
					<path fill="#0E1113" d="M397.159,170.614c0.238-0.095,0.475-0.19,0.713-0.285C397.634,170.425,397.396,170.519,397.159,170.614
						z"/>
					<path fill="#101619" d="M415.191,181.595c-0.145-0.02-0.291-0.04-0.436-0.061c0.252-0.115,0.505-0.23,0.757-0.345
						C415.405,181.325,415.298,181.46,415.191,181.595z"/>
					<path fill="#0E1113" d="M394.018,164.917c-0.221,0.028-0.441,0.056-0.662,0.084
						C393.577,164.973,393.798,164.945,394.018,164.917z"/>
					<path fill="#0E1113" d="M409.104,167.495c0.105-0.058,0.21-0.117,0.315-0.175C409.314,167.379,409.209,167.437,409.104,167.495
						z"/>
					<path fill="#1B2222" d="M363.275,161.702c0.003-0.113,0.006-0.227,0.009-0.34c0.124,0.058,0.248,0.116,0.372,0.175
						C363.529,161.591,363.402,161.646,363.275,161.702z"/>
					<path fill="#101619" d="M442.977,175.544c-0.172,0.195-0.344,0.39-0.516,0.585
						C442.633,175.934,442.805,175.739,442.977,175.544z"/>
					<path fill="#0E1113" d="M416.801,178.378c-0.216,0.105-0.432,0.209-0.649,0.314
						C416.369,178.587,416.585,178.483,416.801,178.378z"/>
					<path fill="#101619" d="M421.93,179.023c-0.107,0.112-0.213,0.225-0.32,0.338C421.716,179.248,421.823,179.135,421.93,179.023z
						"/>
					<path fill="#101517" d="M448.76,170.731c-0.175,0.195-0.351,0.39-0.526,0.585C448.409,171.122,448.585,170.927,448.76,170.731z
						"/>
					<path fill="#1B2222" d="M363.452,158.504c0.133-0.003,0.266-0.007,0.399-0.01c-0.16,0.077-0.32,0.154-0.48,0.23
						C363.361,158.638,363.388,158.564,363.452,158.504z"/>
					<path fill="#0E1113" d="M392.404,165.161l-0.151,0.054l-0.157-0.032C392.199,165.175,392.301,165.168,392.404,165.161z"/>
					<path fill="#1B2222" d="M426.786,176.147c-0.127,0.091-0.254,0.183-0.38,0.274C426.533,176.33,426.659,176.239,426.786,176.147
						z"/>
					<path fill="#101517" d="M446.908,174.511c0.117-0.109,0.235-0.218,0.352-0.327
						C447.143,174.293,447.025,174.402,446.908,174.511z"/>
					<path fill="#101619" d="M422.931,176.518c0.102-0.017,0.188,0.012,0.259,0.087c-0.087,0.059-0.174,0.117-0.261,0.175
						C422.899,176.693,422.9,176.605,422.931,176.518z"/>
					<path fill="#0E1113" d="M410.642,178.51c-0.125-0.033-0.25-0.065-0.375-0.098C410.391,178.445,410.516,178.478,410.642,178.51z
						"/>
					<path fill="#0E1113" d="M399.141,171.275c-0.105,0.015-0.21,0.03-0.314,0.046C398.931,171.306,399.036,171.29,399.141,171.275z
						"/>
					<path fill="#0E1113" d="M395.441,163.567c0.157-0.043,0.314-0.085,0.471-0.128
						C395.755,163.481,395.598,163.524,395.441,163.567z"/>
					<path fill="#0E1113" d="M412.719,166.751c0.183-0.089,0.367-0.177,0.55-0.266C413.086,166.574,412.903,166.662,412.719,166.751
						z"/>
					<path fill="#0E1113" d="M420.938,164.118c-0.137-0.047-0.274-0.094-0.412-0.14
						C420.664,164.024,420.801,164.071,420.938,164.118z"/>
					<path fill="#19171A" d="M473.267,229.447c0.149,0.069,0.298,0.139,0.447,0.208
						C473.565,229.586,473.416,229.516,473.267,229.447z"/>
					<path fill="#101619" d="M423.123,178.766l-0.08,0.071c0,0-0.099-0.04-0.099-0.041
						C422.999,178.753,423.058,178.743,423.123,178.766z"/>
					<path fill="#0E1113" d="M409.531,162.591c0.084-0.081,0.169-0.162,0.253-0.243C409.699,162.429,409.615,162.51,409.531,162.591
						z"/>
					<path fill="#1B2222" d="M436.679,169.389c-0.106,0.083-0.211,0.165-0.317,0.248
						C436.468,169.554,436.573,169.472,436.679,169.389z"/>
					<path fill="#0E1113" d="M412.287,179.004c0.045,0.044,0.09,0.088,0.136,0.133c-0.027-0.008-0.064-0.008-0.079-0.026
						c-0.025-0.03-0.037-0.072-0.054-0.109L412.287,179.004z"/>
					<path fill="#0E1113" d="M420.973,164.965c0.103-0.01,0.206-0.021,0.309-0.031C421.179,164.944,421.076,164.954,420.973,164.965
						z"/>
					<path fill="#0E1113" d="M388.785,165.932c-0.183,0.092-0.367,0.183-0.55,0.275
						C388.418,166.116,388.601,166.024,388.785,165.932z"/>
					<path fill="#0E1113" d="M408.346,168.822c-0.177,0.073-0.353,0.145-0.53,0.218C407.993,168.967,408.17,168.895,408.346,168.822
						z"/>
					<path fill="#101619" d="M418.705,179.337c0.109-0.076,0.218-0.152,0.327-0.228
						C418.923,179.185,418.814,179.261,418.705,179.337z"/>
					<path fill="#603E90" d="M289.753,82.815c-1.754,0.754-3.497,1.533-5.266,2.247c-0.676,0.273-1.413,0.396-2.122,0.587
						l0.021,0.025c1.123-1.793,2.009-3.807,3.43-5.32c1.646-1.753,3.772-3.052,5.662-4.582c0.319-0.258,0.499-0.687,0.743-1.036
						c-0.38-0.18-0.811-0.58-1.133-0.506c-5.087,1.162-9.945,2.93-14.42,5.658c-0.077,0.047-0.099,0.185-0.147,0.28
						c-0.407,0.199-0.814,0.398-1.221,0.597c-0.668,0.428-1.336,0.855-2.004,1.283l0.083,0.036c0,0-0.076-0.049-0.075-0.048
						c-0.293,0.035-0.587,0.069-0.881,0.103c0.796-1.216,1.466-2.542,2.413-3.626c2.653-3.038,5.496-5.875,8.735-8.33
						c5.566-4.218,11.641-7.418,18.197-9.779c0.892-0.321,1.601-1.151,2.395-1.745c-0.923-0.403-1.816-0.918-2.778-1.173
						c-0.713-0.188-1.515-0.037-2.277-0.037c-0.012-0.133-0.025-0.266-0.037-0.399c0.639-0.324,1.278-0.649,1.916-0.973
						c0.142-0.069,0.284-0.137,0.426-0.206c0.18-0.053,0.36-0.106,0.54-0.158c0.127-0.059,0.255-0.117,0.382-0.176
						c0.108,0.007,0.195-0.034,0.259-0.121c0.136-0.064,0.272-0.128,0.409-0.193c0.822-0.241,1.643-0.481,2.465-0.721
						c0.207-0.117,0.414-0.234,0.622-0.35c0.117,0.025,0.233,0.051,0.35,0.076c0.562-0.295,1.124-0.591,1.686-0.886
						c0,0-0.028,0.02-0.028,0.02c0-0.001,0.119,0.055,0.119,0.055l0.127-0.037c0.543-0.136,1.085-0.272,1.628-0.408
						c7.446-1.981,14.951-2.389,22.425-0.352c4.673,1.273,9.041,3.306,13.262,5.767c4.262,2.485,8.103,5.414,11.706,8.741
						c0.804,0.743,1.135,1.447,1.1,2.465c-0.022,0.636,0.061,1.276,0.097,1.914c-0.019,0.331-0.037,0.662-0.055,0.993
						c-0.027,0.108-0.054,0.217-0.081,0.325c-0.005,0.108-0.011,0.215-0.016,0.323c-0.09,1.818-0.18,3.636-0.27,5.454
						c-0.005,0.75-0.009,1.5-0.014,2.251c-0.027,0.214-0.053,0.428-0.08,0.643c-0.399,2.544-0.797,5.087-1.219,7.776
						c-0.435-0.224-0.68-0.318-0.889-0.463c-3.535-2.454-6.965-5.079-10.634-7.314c-2.412-1.47-5.07-2.965-7.788-3.412
						c-4.976-0.817-9.858,0.368-14.334,2.74c-2.505,1.327-4.866,2.928-7.642,4.618c1.546-3.143,3.202-5.677,6.763-7.221
						c-0.895-0.421-1.418-0.872-1.943-0.875c-1.542-0.009-3.084,0.2-4.629,0.251c-7.813,0.257-15.394,1.764-22.812,4.171
						c0,0,0.019-0.017,0.019-0.017c-0.313,0.126-0.626,0.251-0.94,0.377c-0.214,0.105-0.429,0.209-0.643,0.314
						c-0.346,0.094-0.692,0.187-1.039,0.281C290.127,82.754,289.94,82.785,289.753,82.815z"/>
					<path fill="#141619" d="M358.121,80.853c0.005-0.75,0.009-1.5,0.014-2.251c0.374-0.026,0.749-0.052,1.123-0.078
						c-0.309,3.583-0.485,7.185-0.971,10.744c-0.37,2.709-0.517,2.646-2.776,1.079c-4.054-2.811-8.183-5.516-12.21-8.365
						c-5.035-3.562-10.378-3.037-15.828-1.377c-5.059,1.541-9.065,4.818-13.11,8.033c-0.391,0.31-0.987,0.362-1.488,0.534
						c0.004-0.559-0.188-1.223,0.045-1.661c1.525-2.875,3.142-5.701,4.821-8.707c-3.228,0.279-6.613,0.366-9.923,0.911
						c-3.872,0.638-7.678,1.678-11.514,2.539c-0.465,0.104-0.938,0.176-1.407,0.263c-0.66-0.25-1.321-0.499-1.981-0.749
						c7.418-2.407,14.999-3.915,22.811-4.171c1.544-0.051,3.086-0.26,4.629-0.251c0.525,0.003,1.048,0.454,1.943,0.875
						c-3.561,1.544-5.217,4.078-6.763,7.221c2.776-1.691,5.137-3.291,7.642-4.618c4.476-2.371,9.358-3.556,14.334-2.74
						c2.718,0.446,5.376,1.942,7.788,3.412c3.668,2.235,7.098,4.86,10.634,7.314c0.209,0.145,0.453,0.238,0.889,0.463
						c0.421-2.689,0.82-5.232,1.219-7.776c0.165-0.167,0.331-0.334,0.497-0.501C358.399,80.948,358.26,80.901,358.121,80.853z"/>
					<path fill="#159ABB" d="M297.833,126.15c-1.368,0.682-2.438-0.144-3.383-1.358c-2.369-3.043-3.565-6.615-4.299-10.302
						c-0.808-4.058-1.11-8.191-0.158-12.293c0.225-0.969,0.618-1.913,1.04-2.82c1.632-3.507,4.261-3.194,6.982-0.071
						c-0.072,0.059-0.175,0.185-0.212,0.168c-2.693-1.237-4.166-0.429-5.537,2.244c-1.738,3.389-1.817,7.043-0.976,10.702
						c0.439,1.912,0.795,3.918,1.667,5.639C294.38,120.867,296.195,123.477,297.833,126.15z"/>
					<path fill="#10272B" d="M292.956,145.587c2.817-0.657,5.66-1.222,8.439-2.01c1.302-0.369,2.475-1.184,3.718-1.771
						c0.506-0.239,1.043-0.41,1.566-0.613c0.135,0.131,0.269,0.262,0.404,0.393c-0.378,0.498-0.653,1.252-1.15,1.451
						c-3.127,1.254-6.304,2.385-9.464,3.556c-0.8,0.094-1.601,0.187-2.402,0.281c-0.692,0.126-1.383,0.251-2.075,0.377
						C292.314,146.697,292.635,146.142,292.956,145.587z"/>
					<path fill="#141619" d="M290.874,87.223c-0.072,0.453-0.144,0.907-0.219,1.375c1.467,0.328,2.92,0.47,4.225,0.985
						c2.264,0.893,3.741,2.769,5.041,4.742c0.181,0.274-0.059,0.825-0.104,1.248c-0.411-0.117-0.93-0.116-1.21-0.374
						c-0.582-0.537-1.015-1.231-1.549-1.825c-1.368-1.522-3.141-2.284-5.114-2.651c-0.303-0.298-0.607-0.595-0.911-0.893
						l-0.001-0.001C289.333,88.529,289.333,88.529,290.874,87.223z"/>
					<path fill="#141619" d="M291.425,90.713c-0.963,0.297-1.926,0.594-2.888,0.891c-0.103-1.905,1.511-1.399,2.496-1.775
						l0.001,0.001C291.164,90.124,291.294,90.418,291.425,90.713z"/>
					<path fill="#141619" d="M290.313,82.723c0.346-0.094,0.692-0.187,1.039-0.281C291.006,82.536,290.66,82.629,290.313,82.723z"/>
					<path fill="#141619" d="M292.237,84.991c-0.171,0.261-0.342,0.523-0.514,0.784C291.895,85.514,292.066,85.253,292.237,84.991z"
						/>
					<path fill="#141619" d="M291.995,82.128c0.313-0.126,0.626-0.251,0.94-0.377C292.621,81.877,292.308,82.002,291.995,82.128z"/>
					<path fill="#10272B" d="M291.673,145.756c0.215-0.031,0.43-0.063,0.645-0.094C292.103,145.693,291.888,145.725,291.673,145.756
						z"/>
					<path fill="#10272B" d="M291.99,147.253c-0.013,0.112-0.026,0.224-0.039,0.335c0,0-0.153,0.005-0.153,0.005
						s-0.152-0.015-0.153-0.015C291.76,147.47,291.875,147.361,291.99,147.253z"/>
					<path fill="#187072" d="M380.03,225.942c3.365-0.859,6.53-1.685,9.71-2.448c0.288-0.069,0.873,0.178,0.983,0.428
						c1.696,3.836,3.422,7.663,4.959,11.564c1.047,2.658,2.068,5.374,2.634,8.159c0.599,2.952,0.755,6.011,0.913,9.034
						c0.358,6.86-1.03,13.504-3.135,19.957c-1.646,5.044-3.782,9.93-5.753,14.865c-0.154,0.384-0.707,0.831-1.103,0.859
						c-2.155,0.155-4.319,0.189-6.479,0.264c-0.421,0.014-0.847-0.015-1.262,0.041c-3.209,0.432-5.555-1.701-4.753-4.829
						c0.728-2.84,1.936-5.624,3.341-8.21c2.524-4.648,4.723-9.408,5.991-14.539c0.952-3.855,0.76-7.823,0.83-11.77
						c0.078-4.429-0.649-8.687-2.216-12.776c-1.212-3.163-2.739-6.204-4.124-9.301C380.435,226.95,380.322,226.654,380.03,225.942z"
						/>
					<path fill="#101313" d="M374.673,225.422c0.135-0.083,0.27-0.167,0.404-0.25C374.942,225.255,374.808,225.338,374.673,225.422z
						"/>
					<path fill="#5D3C8E" d="M374.317,143.464c-1.674-6.436-4.208-12.243-7.769-17.607c-0.351-0.528-0.487-1.412-0.329-2.03
						c1.318-5.153,1.801-10.354,0.873-15.606c-0.301-1.703,0.815-2.218,2.116-3.208c0.697,1.162,1.346,2.318,2.075,3.422
						c0.261,0.395,0.712,0.92,1.077,0.921c0.398,0,0.978-0.454,1.166-0.857c1.163-2.494,2.237-5.028,3.326-7.514
						c2.031,2.601,5.091,20.489,4.218,24.684c-1.38-2.09-2.755-4.263-4.243-6.357c-0.339-0.477-1.063-0.681-1.61-1.011
						c-0.164,0.656-0.575,1.36-0.455,1.959c1.063,5.318,1.014,10.696,0.913,16.069c-0.038,2.003-0.405,4.002-0.681,5.994
						C374.944,142.681,374.603,142.998,374.317,143.464z"/>
					<path fill="#161B1B" d="M375.594,100.107c0.074-0.209,0.149-0.417,0.223-0.626C375.743,99.69,375.669,99.899,375.594,100.107z"
						/>
					<path fill="#1B2222" d="M367.906,132.517c0.046-0.219,0.092-0.437,0.138-0.656C367.998,132.08,367.952,132.299,367.906,132.517
						z"/>
					<path fill="#1B2222" d="M368.016,133.442c0.116-0.074,0.23-0.15,0.35-0.218c0.005-0.003,0.055,0.072,0.084,0.11
						c-0.136,0.047-0.271,0.093-0.407,0.14C368.043,133.474,368.016,133.442,368.016,133.442z"/>
					<path fill="#161B1B" d="M377.12,95.271c0.056-0.137,0.112-0.274,0.168-0.411C377.233,94.997,377.177,95.134,377.12,95.271z"/>
					<path fill="#141619" d="M273.295,82.048c0.668-0.428,1.336-0.855,2.004-1.283c0.059,0.577,0.118,1.154,0.184,1.789
						C274.554,82.339,273.925,82.194,273.295,82.048z"/>
					<path fill="#141619" d="M272.422,82.139c0.294-0.034,0.588-0.068,0.881-0.103c0.233,1.929-1.194,0.443-1.81,0.756
						c0.173-0.227,0.347-0.454,0.521-0.681c0.102,0.086,0.203,0.172,0.305,0.259c0.039-0.084,0.078-0.169,0.117-0.253
						L272.422,82.139z"/>
					<path fill="#1D1C20" d="M308.123,53.342c-0.562,0.295-1.124,0.591-1.686,0.886C306.999,53.932,307.561,53.637,308.123,53.342z"
						/>
					<path fill="#1D1C20" d="M306.087,54.151c-0.207,0.117-0.414,0.234-0.622,0.35C305.673,54.385,305.88,54.268,306.087,54.151z"/>
					<path fill="#1D1C20" d="M308.341,53.379l-0.127,0.037c0,0-0.12-0.056-0.119-0.055c0.042-0.078,0.083-0.156,0.125-0.235
						C308.26,53.211,308.3,53.295,308.341,53.379z"/>
					<path fill="#1D1C20" d="M303.001,55.223c-0.136,0.064-0.273,0.129-0.409,0.193C302.729,55.351,302.865,55.287,303.001,55.223z"
						/>
					<path fill="#1D1C20" d="M302.334,55.537c-0.127,0.059-0.255,0.118-0.382,0.176C302.079,55.654,302.206,55.595,302.334,55.537z"
						/>
					<path fill="#1D1C20" d="M301.411,55.871c-0.142,0.069-0.284,0.138-0.426,0.206C301.127,56.008,301.269,55.94,301.411,55.871z"
						/>
					<path fill="#603E90" d="M272.435,82.116c-0.039,0.084-0.078,0.169-0.117,0.253c-0.102-0.086-0.203-0.172-0.305-0.259
						C272.154,82.113,272.295,82.114,272.435,82.116z"/>
					<path fill="#101517" d="M351.996,185.435c0.106,0.109,0.212,0.219,0.318,0.328c0.3,2.625,0.438,5.282,0.95,7.865
						c0.441,2.225,1.105,4.462,2.073,6.503c0.49,1.033,1.831,1.698,2.855,2.436c3.125,2.253,9.421,5.397,14.208,5.974
						c-0.691-0.942-1.282-1.691-1.811-2.482c-0.647-0.967-1.335-1.923-1.834-2.966c-0.638-1.334-0.075-2.044,1.346-1.817
						c5.591,0.894,11.169,1.88,16.772,2.687c3.458,0.498,6.972,1.118,10.427,0.959c2.506-0.115,5.079-1.157,7.409-2.244
						c5.403-2.521,10.677-5.319,16.004-8.003c0.186-0.094,0.388-0.157,0.583-0.234c0.15,0.339,0.3,0.679,0.45,1.018
						c-1.848,1.134-3.651,2.351-5.553,3.384c-5.522,2.999-11.093,5.951-17.246,7.428c-1.685,0.404-3.594,0.153-5.357-0.102
						c-6.792-0.979-13.565-2.087-20.348-3.129c-0.878-0.135-1.772-0.165-3.224-0.293c1.489,1.895,2.739,3.381,3.863,4.957
						c0.643,0.902,1.081,1.949,1.612,2.931c-1.065,0.016-2.183,0.253-3.186,0.012c-6.627-1.594-12.546-4.678-17.767-9.021
						c-0.842-0.701-1.296-2.083-1.551-3.234c-0.743-3.359-1.389-6.748-1.857-10.155C351.011,187.36,351.686,186.373,351.996,185.435
						z"/>
					<path fill="#101517" d="M419.412,210.473c0.21-0.643,0.42-1.286,0.63-1.929C419.832,209.188,419.622,209.831,419.412,210.473z"
						/>
					<path fill="#101517" d="M420.493,206.938c0.247-0.687,0.494-1.373,0.741-2.06C420.986,205.565,420.74,206.252,420.493,206.938z
						"/>
					<path fill="#161B1B" d="M420.985,239.003c-0.003-0.317-0.005-0.635-0.008-0.952
						C420.98,238.368,420.982,238.686,420.985,239.003z"/>
					<path fill="#161B1B" d="M420.792,235.495c-0.024-0.339-0.048-0.678-0.073-1.016
						C420.743,234.817,420.767,235.156,420.792,235.495z"/>
					<path fill="#101517" d="M423.98,196.991c0.06-0.325,0.12-0.65,0.18-0.975C424.101,196.341,424.04,196.666,423.98,196.991z"/>
					<path fill="#101517" d="M424.318,194.781c-0.055-0.226-0.11-0.452-0.165-0.679c0.182,0.081,0.364,0.162,0.546,0.243
						C424.572,194.491,424.445,194.636,424.318,194.781z"/>
					<path fill="#101517" d="M421.416,204.369c0.146-0.276,0.293-0.552,0.439-0.828
						C421.709,203.817,421.562,204.093,421.416,204.369z"/>
					<path fill="#101517" d="M421.881,194.054c0.232-0.151,0.465-0.302,0.697-0.453
						C422.346,193.753,422.114,193.904,421.881,194.054z"/>
					<path fill="#101517" d="M424.402,195.365c-0.062-0.086-0.075-0.179-0.039-0.278c0.157,0.056,0.315,0.111,0.472,0.167
						C424.691,195.29,424.546,195.328,424.402,195.365z"/>
					<path fill="#101517" d="M421.318,194.431c0.193-0.13,0.387-0.259,0.58-0.389C421.705,194.172,421.512,194.302,421.318,194.431z
						"/>
					<path fill="#101517" d="M422.005,202.748c0.064-0.147,0.128-0.294,0.192-0.442
						C422.132,202.453,422.069,202.601,422.005,202.748z"/>
					<path fill="#161B1B" d="M420.535,232.586c-0.054-0.083-0.062-0.17-0.024-0.261c0.084,0.036,0.168,0.072,0.252,0.108
						C420.687,232.484,420.611,232.535,420.535,232.586z"/>
					<path fill="#141619" d="M358.503,72.501c0.018-0.331,0.036-0.662,0.055-0.993c0.279-0.093,0.557-0.186,0.834-0.279
						c0.114,0.098,0.228,0.197,0.341,0.296c-0.132,1.821-0.264,3.643-0.396,5.464c-0.153-0.199-0.404-0.38-0.444-0.599
						c-0.194-1.075-0.332-2.159-0.489-3.24c0.005-0.108,0.011-0.215,0.016-0.323c0.136-0.039,0.271-0.078,0.407-0.117
						C358.72,72.639,358.612,72.57,358.503,72.501z"/>
					<path fill="#253133" d="M359.734,71.524c-0.114-0.099-0.228-0.197-0.341-0.296c0.117,0.016,0.234,0.032,0.351,0.047
						C359.76,71.359,359.757,71.442,359.734,71.524z"/>
					<path fill="#603E90" d="M282.364,85.65c-0.022,0.046-0.037,0.099-0.07,0.134c-0.015,0.016-0.068-0.003-0.104-0.006
						c0.065-0.034,0.13-0.069,0.195-0.103C282.386,85.674,282.364,85.65,282.364,85.65z"/>
					<path fill="#0A0C0D" d="M333.002,136.022c-5.343-0.579-10.83-3.857-14.602-10.01c-2.768-4.515-4.045-9.413-3.452-14.636
						c0.656-5.777,3.655-10.367,8.164-13.955c1.446-1.151,3.035-2.127,4.593-3.13c3.481-2.241,7.371-3.039,11.32-2.111
						c2.687,0.631,5.287,1.929,7.717,3.298c5.288,2.981,7.528,8.001,8.712,13.702c1.425,6.859-1.052,12.798-4.403,18.411
						C348.081,132.567,340.79,136.104,333.002,136.022z M337.605,134.319c0.256-0.032,0.525-0.024,0.767-0.101
						c6.57-2.065,11.527-5.768,13.919-12.605c1.344-3.842,1.942-7.641,1.658-11.655c-0.561-7.936-7.409-14.007-14.432-16.094
						c-3.006-0.893-5.659,0.3-8.453,0.634c-1.09,0.13-2.1,0.935-3.146,1.433c9.398,0.69,16.907,5.166,19.33,12.092
						C351.192,119.295,346.852,127.64,337.605,134.319z M327.508,132.005c2.776,1.847,5.346,3.76,8.876,1.1
						c3.385-2.55,6.665-5.027,8.675-8.896c2.861-5.507,3.273-11.18,0.425-16.638c-3.078-5.899-8.109-9.483-14.937-9.957
						c-3.458-0.24-6.885,0.38-8.911,3.484c-1.98,3.034-3.668,6.315-5.03,9.671c-0.608,1.497-0.103,3.446-0.103,5.19
						c0.528-0.563,0.707-1.156,0.889-1.749c0.839-2.739,1.777-5.412,3.543-7.75c5.095-6.746,10.776-7.054,16.998-2.054
						c4.761,3.826,6.364,9.165,5.217,15.16c-0.782,4.084-2.406,7.79-6.184,10.073C334.075,131.386,330.904,132.085,327.508,132.005z
						"/>
					<path fill="#0E1113" d="M350.359,92.065c-0.805,0.249-1.314,0.595-1.696,0.489c-0.962-0.27-1.878-0.721-2.794-1.14
						c-2.177-0.994-4.279-2.199-6.53-2.976c-3.525-1.216-6.726,0.22-9.739,1.872c-2.79,1.529-5.424,3.34-8.176,4.942
						c-0.441,0.257-1.143,0.066-1.725,0.082c0.161-0.458,0.181-1.106,0.504-1.345c4.059-3.005,8.142-5.959,13.147-7.296
						c3.987-1.065,7.579,0.003,11.072,1.774c1.609,0.817,3.174,1.722,4.747,2.609C349.468,91.246,349.708,91.518,350.359,92.065z"/>
					<path fill="#0A0C0D" d="M369.14,68.862c0.443,1.297,0.74,2.668,1.356,3.877c2.266,4.443,2.547,9.053,1.214,13.761
						c-0.835,2.95-1.909,5.835-2.96,8.718c-0.147,0.403-0.779,0.629-1.187,0.937c-0.149-0.515-0.536-1.1-0.409-1.533
						c0.78-2.648,1.691-5.256,2.531-7.887c1.409-4.413,1.18-8.67-0.981-12.855c-0.74-1.434-0.98-3.126-1.448-4.701
						c-0.015-0.051-0.049-0.124-0.027-0.154c0.449-0.642,0.904-1.279,1.358-1.917c0.375,0.461,0.75,0.922,1.125,1.383
						C369.523,68.615,369.332,68.739,369.14,68.862z"/>
					<path fill="#101619" d="M289.397,133.907c1.389-0.492,2.608-0.953,3.851-1.336c0.229-0.07,0.629,0.106,0.81,0.3
						c0.125,0.133,0.09,0.531-0.012,0.744C293.414,134.939,290.57,135.242,289.397,133.907z"/>
					<path fill="#E6E6E4" d="M294.068,146.874c0.801-0.094,1.601-0.187,2.402-0.281c0.329,1.137,0.658,2.273,1.064,3.675
						C295.724,149.665,294.755,148.426,294.068,146.874z"/>
					<path fill="#1D1C20" d="M358.406,73.148c0.158,1.081,0.295,2.166,0.489,3.24c0.04,0.219,0.29,0.401,0.444,0.599
						c0.001,0.218,0.002,0.437,0.002,0.655c-0.07,0.135-0.139,0.27-0.209,0.406c0,0,0.061,0.065,0.06,0.063
						c-0.19-0.098-0.38-0.196-0.569-0.293c-0.033,0.078-0.065,0.156-0.098,0.234c0.23,0.077,0.461,0.154,0.691,0.231
						c0.081,0.069,0.094,0.149,0.042,0.241c-0.374,0.026-0.748,0.052-1.123,0.078C358.226,76.785,358.316,74.967,358.406,73.148z"/>
					<path fill="#121112" d="M363.544,167.145c0.434-0.002,0.867-0.004,1.301-0.006c0.165,0.849,0.33,1.698,0.495,2.548
						c-0.475,0.109-0.949,0.217-1.423,0.326C363.792,169.057,363.668,168.101,363.544,167.145z"/>
					<path fill="#1B2222" d="M363.916,170.013c0.474-0.109,0.949-0.217,1.423-0.326c-0.076,0.505-0.153,1.01-0.229,1.515
						C364.712,170.805,364.314,170.409,363.916,170.013z"/>
					<path fill="#101517" d="M354.829,182.102c-0.564,0.559-1.128,1.118-1.692,1.678
						C353.701,183.22,354.265,182.661,354.829,182.102z"/>
					<path fill="#253133" d="M293.902,151.43c-0.163-0.478-0.326-0.957-0.489-1.435C293.577,150.473,293.74,150.952,293.902,151.43z
						"/>
					<path fill="#0C0E0E" d="M291.425,90.713c-0.13-0.294-0.261-0.589-0.391-0.883c0.304,0.297,0.607,0.595,0.911,0.893
						C291.771,90.72,291.598,90.716,291.425,90.713z"/>
					<path fill="#253133" d="M292.814,149.223c-0.163-0.233-0.326-0.465-0.488-0.698
						C292.489,148.758,292.651,148.991,292.814,149.223z"/>
					<path fill="#141619" d="M359.216,78.284c-0.23-0.077-0.461-0.154-0.691-0.231c0.033-0.078,0.065-0.156,0.098-0.234
						c0.189,0.097,0.378,0.195,0.569,0.293C359.237,78.166,359.245,78.222,359.216,78.284z"/>
					<path fill="#141619" d="M359.131,78.049c0.07-0.135,0.139-0.27,0.209-0.406C359.271,77.779,359.201,77.914,359.131,78.049z"/>
					<path fill="#101517" d="M355.473,181.429c-0.14,0.145-0.281,0.29-0.421,0.436C355.192,181.719,355.333,181.574,355.473,181.429
						z"/>
					<path fill="#101517" d="M352.588,184.347c-0.123,0.139-0.247,0.277-0.37,0.416
						C352.342,184.624,352.465,184.485,352.588,184.347z"/>
					<path fill="#101619" d="M383.371,199.896c0.334,0.069,0.667,0.137,1.001,0.206
						C384.039,200.033,383.705,199.965,383.371,199.896z"/>
					<path fill="#101619" d="M436.365,180.621c0.23-0.206,0.46-0.412,0.691-0.618C436.826,180.208,436.595,180.415,436.365,180.621z
						"/>
					<path fill="#101619" d="M433.463,182.502c0.184-0.177,0.369-0.354,0.554-0.531
						C433.832,182.148,433.647,182.325,433.463,182.502z"/>
					<path fill="#101619" d="M429.648,185.157c0.099-0.123,0.199-0.245,0.298-0.368
						C429.847,184.911,429.747,185.034,429.648,185.157z"/>
					<path fill="#101619" d="M407.814,184.855c-0.106,0.091-0.212,0.182-0.318,0.274
						C407.602,185.037,407.708,184.946,407.814,184.855z"/>
					<path fill="#101619" d="M402.682,187.131c-0.04,0.121-0.081,0.242-0.121,0.363c-0.068-0.044-0.135-0.088-0.203-0.132
						C402.466,187.285,402.574,187.208,402.682,187.131z"/>
					<path fill="#101619" d="M384.597,192.734c-0.275-0.045-0.55-0.09-0.825-0.135C384.047,192.644,384.322,192.689,384.597,192.734
						z"/>
					<path fill="#101619" d="M371.87,195.353c-0.187,0.123-0.374,0.245-0.561,0.368C371.496,195.599,371.683,195.476,371.87,195.353
						z"/>
					<path fill="#101619" d="M370.774,196.97c0.152,0.099,0.304,0.197,0.456,0.296C371.078,197.167,370.926,197.068,370.774,196.97z
						"/>
					<path fill="#101517" d="M353.332,185.527c0.134-0.124,0.267-0.247,0.401-0.371C353.599,185.28,353.465,185.403,353.332,185.527
						z"/>
					<path fill="#101517" d="M352.956,185.71c0.134-0.067,0.268-0.134,0.403-0.2C353.225,185.577,353.091,185.644,352.956,185.71z"
						/>
					<path fill="#101619" d="M385.345,192.553c-0.169,0.065-0.338,0.129-0.508,0.194
						C385.006,192.683,385.175,192.618,385.345,192.553z"/>
					<path fill="#101619" d="M386.63,192.551c-0.102,0-0.204-0.001-0.306-0.001C386.426,192.55,386.528,192.551,386.63,192.551z"/>
					<path fill="#101619" d="M376.282,198.621c0.135,0.083,0.269,0.166,0.404,0.249
						C376.551,198.787,376.416,198.704,376.282,198.621z"/>
					<path fill="#101619" d="M387.598,192.502c-0.105,0.004-0.211,0.007-0.316,0.011
						C387.387,192.509,387.492,192.505,387.598,192.502z"/>
					<path fill="#101619" d="M403.838,186.584c-0.125,0.135-0.251,0.27-0.377,0.405C403.586,186.855,403.712,186.72,403.838,186.584
						z"/>
					<path fill="#101619" d="M388.881,200.531c0.105-0.022,0.21-0.044,0.315-0.066C389.091,200.487,388.986,200.509,388.881,200.531
						z"/>
					<path fill="#101619" d="M389.854,200.439c0.101,0.005,0.203,0.01,0.304,0.015C390.057,200.448,389.955,200.443,389.854,200.439
						z"/>
					<path fill="#101619" d="M390.83,200.391c0.167-0.042,0.335-0.085,0.502-0.127C391.165,200.306,390.997,200.348,390.83,200.391z
						"/>
					<path fill="#101619" d="M396.91,189.565c-0.168,0.104-0.336,0.208-0.505,0.313C396.573,189.773,396.742,189.669,396.91,189.565
						z"/>
					<path fill="#101619" d="M377.961,192.909c-0.149,0.058-0.298,0.117-0.448,0.175
						C377.662,193.025,377.811,192.967,377.961,192.909z"/>
					<path fill="#101619" d="M404.277,186.439c-0.138,0.039-0.277,0.078-0.415,0.115C404,186.514,404.139,186.477,404.277,186.439z"
						/>
					<path fill="#101619" d="M416.162,193.03c0.084-0.077,0.168-0.154,0.251-0.231C416.329,192.876,416.246,192.953,416.162,193.03z
						"/>
					<path fill="#101619" d="M382.772,192.604c-0.168,0.045-0.336,0.09-0.505,0.135
						C382.435,192.694,382.603,192.649,382.772,192.604z"/>
					<path fill="#101619" d="M406.519,185.617c-0.105,0.042-0.209,0.085-0.314,0.127
						C406.31,185.701,406.414,185.659,406.519,185.617z"/>
					<path fill="#101619" d="M393.74,200.302c0.087-0.076,0.167-0.07,0.241,0.019l-0.123,0.027L393.74,200.302z"/>
					<path fill="#101619" d="M426.74,185.455c-0.336,0.2-0.673,0.399-1.009,0.599C426.067,185.854,426.404,185.655,426.74,185.455z"
						/>
					<path fill="#101619" d="M416.795,191.237c-0.27,0.181-0.54,0.362-0.811,0.542C416.254,191.599,416.524,191.418,416.795,191.237
						z"/>
					<path fill="#101619" d="M393.69,192.083c0.215-0.079,0.43-0.158,0.645-0.237C394.12,191.925,393.905,192.004,393.69,192.083z"
						/>
					<path fill="#101619" d="M374.745,194.985c0.217-0.092,0.434-0.184,0.652-0.276C375.18,194.801,374.962,194.893,374.745,194.985
						z"/>
					<path fill="#101619" d="M406.533,196.111c-0.209,0.092-0.419,0.184-0.628,0.276
						C406.114,196.295,406.323,196.203,406.533,196.111z"/>
					<path fill="#101619" d="M374.1,197.043c-0.206-0.124-0.412-0.248-0.618-0.372C373.689,196.795,373.895,196.919,374.1,197.043z"
						/>
					<path fill="#101619" d="M379.256,198.268c-0.215-0.087-0.429-0.173-0.644-0.26
						C378.827,198.095,379.042,198.182,379.256,198.268z"/>
					<path fill="#101619" d="M384.394,198.899c-0.216-0.078-0.433-0.156-0.649-0.233
						C383.961,198.743,384.178,198.821,384.394,198.899z"/>
					<path fill="#101619" d="M383.094,198.672c-0.101-0.019-0.203-0.037-0.304-0.056C382.9,198.587,383.002,198.606,383.094,198.672
						z"/>
					<path fill="#101619" d="M389.611,199.193c-0.11-0.018-0.22-0.037-0.329-0.054C389.393,199.157,389.502,199.175,389.611,199.193
						z"/>
					<path fill="#101619" d="M411.945,193.636c-0.048,0.055-0.102,0.105-0.161,0.148c0.001,0,0.03-0.132,0.03-0.132L411.945,193.636
						z"/>
					<path fill="#101619" d="M421.563,188.502c-0.072,0.074-0.159,0.122-0.261,0.143
						C421.389,188.598,421.476,188.55,421.563,188.502z"/>
					<path fill="#101619" d="M408.415,195.226c-0.072,0.082-0.162,0.134-0.27,0.155C408.235,195.33,408.325,195.278,408.415,195.226
						z"/>
					<path fill="#0E1113" d="M427.364,173.503c-0.118-0.074-0.237-0.149-0.356-0.223
						C427.126,173.355,427.245,173.429,427.364,173.503z"/>
					<path fill="#121112" d="M426.6,173.26c-0.214,0.126-0.428,0.251-0.643,0.377C426.17,173.511,426.385,173.385,426.6,173.26z"/>
					<path fill="#0E1113" d="M427.007,173.357c-0.127-0.001-0.253-0.002-0.381-0.003
						C426.753,173.355,426.88,173.356,427.007,173.357z"/>
					<path fill="#1D1C20" d="M358.121,80.853c0.139,0.047,0.278,0.094,0.417,0.141c-0.166,0.167-0.332,0.334-0.497,0.501
						C358.068,81.282,358.095,81.068,358.121,80.853z"/>
					<path fill="#1D1C20" d="M358.503,72.501c0.109,0.069,0.217,0.139,0.326,0.208c-0.136,0.039-0.272,0.078-0.407,0.117
						C358.449,72.717,358.476,72.609,358.503,72.501z"/>
					<path fill="#149EC0" d="M327.508,132.005c3.396,0.08,6.567-0.619,9.458-2.366c3.778-2.284,5.403-5.99,6.184-10.073
						c1.147-5.995-0.456-11.334-5.217-15.16c-6.222-5-11.903-4.692-16.998,2.054c-1.767,2.339-2.704,5.011-3.543,7.75
						c-0.182,0.593-0.36,1.186-0.889,1.749c0-1.744-0.505-3.692,0.103-5.19c1.362-3.357,3.05-6.637,5.03-9.671
						c2.026-3.104,5.453-3.724,8.911-3.484c6.829,0.474,11.86,4.059,14.937,9.957c2.847,5.457,2.436,11.131-0.425,16.638
						c-2.01,3.869-5.29,6.346-8.675,8.896C332.853,135.764,330.284,133.852,327.508,132.005z"/>
				</g>
			</g>
		</g>
		
			<text transform="matrix(1 0 0 1 104.9923 39.3142)" fill="#FFFFFF" stroke="#000000" stroke-miterlimit="10" font-family="'GraffitiPaintBrush'" font-size="48.1228">EEEEEEEEEEEEEEEEEEEEEEE</text>
	</g>
</g>
</svg>
